<svg width="292" height="292" viewBox="0 0 292 292" fill="none" xmlns="http://www.w3.org/2000/svg">
<path d="M243.5 0H48.19C21.5754 0 0 21.5754 0 48.19V243.5C0 270.115 21.5754 291.69 48.19 291.69H243.5C270.115 291.69 291.69 270.115 291.69 243.5V48.19C291.69 21.5754 270.115 0 243.5 0Z" fill="url(#paint0_linear_21_5)"/>
<path fill-rule="evenodd" clip-rule="evenodd" d="M245.28 143.28C245.28 196.78 201.57 240.16 147.65 240.16C131.152 240.189 114.915 236.044 100.45 228.11L46.3999 245.28L64.0199 193.28C54.84 178.22 49.9954 160.918 50.0199 143.28C50.0199 89.77 93.7299 46.4 147.66 46.4C201.59 46.4 245.29 89.77 245.29 143.28H245.28ZM147.65 61.84C102.38 61.84 65.5599 98.37 65.5599 143.29C65.5458 160.471 71.026 177.206 81.1999 191.05L70.9399 221.29L102.48 211.29C115.894 220.104 131.599 224.788 147.65 224.76C192.91 224.76 229.74 188.22 229.74 143.31C229.74 98.4 192.91 61.84 147.65 61.84ZM196.95 165.61C196.35 164.61 194.75 164.02 192.37 162.83C189.99 161.64 178.2 155.9 176.01 155.11C173.82 154.32 172.21 153.92 170.63 156.29C169.05 158.66 164.44 164.02 163.04 165.61C161.64 167.2 160.26 167.39 157.86 166.2C155.46 165.01 147.75 162.5 138.61 154.42C133.387 149.62 128.899 144.077 125.29 137.97C123.9 135.6 125.16 134.31 126.34 133.13C127.52 131.95 128.74 130.36 129.93 128.97C130.919 127.76 131.727 126.412 132.33 124.97C132.649 124.317 132.798 123.594 132.761 122.868C132.724 122.142 132.504 121.437 132.12 120.82C131.53 119.63 126.74 107.95 124.74 103.19C122.74 98.43 120.74 98.62 119.36 98.62C118.02 98.6799 116.684 98.8168 115.36 99.03C115.36 99.03 110.57 99.63 108.36 102.03C106.15 104.43 99.9799 110.15 99.9799 121.83C99.9799 133.51 108.55 144.83 109.75 146.39C110.95 147.95 126.3 172.74 150.63 182.25C174.96 191.76 174.97 188.58 179.36 188.18C183.75 187.78 193.51 182.44 195.51 176.89C197.51 171.34 197.51 166.59 196.91 165.61H196.95Z" fill="white"/>
<defs>
<linearGradient id="paint0_linear_21_5" x1="145.84" y1="0" x2="145.84" y2="291.68" gradientUnits="userSpaceOnUse">
<stop stop-color="#4AC14B"/>
<stop offset="1" stop-color="#06853A"/>
</linearGradient>
</defs>
</svg>
