<?xml version="1.0" encoding="UTF-8" standalone="no"?>
<!-- Created with Inkscape (http://www.inkscape.org/) -->

<svg
   version="1.1"
   id="svg2"
   width="666.66669"
   height="666.66669"
   viewBox="0 0 666.66669 666.66669"
   sodipodi:docname="7155155.ai"
   xmlns:inkscape="http://www.inkscape.org/namespaces/inkscape"
   xmlns:sodipodi="http://sodipodi.sourceforge.net/DTD/sodipodi-0.dtd"
   xmlns="http://www.w3.org/2000/svg"
   xmlns:svg="http://www.w3.org/2000/svg">
  <defs
     id="defs6">
    <clipPath
       clipPathUnits="userSpaceOnUse"
       id="clipPath16">
      <path
         d="M 0,500 H 500 V 0 H 0 Z"
         id="path14" />
    </clipPath>
    <clipPath
       clipPathUnits="userSpaceOnUse"
       id="clipPath168">
      <path
         d="M 0,500 H 500 V 0 H 0 Z"
         id="path166" />
    </clipPath>
    <clipPath
       clipPathUnits="userSpaceOnUse"
       id="clipPath196">
      <path
         d="M 0,500 H 500 V 0 H 0 Z"
         id="path194" />
    </clipPath>
    <clipPath
       clipPathUnits="userSpaceOnUse"
       id="clipPath216">
      <path
         d="M 0,500 H 500 V 0 H 0 Z"
         id="path214" />
    </clipPath>
    <clipPath
       clipPathUnits="userSpaceOnUse"
       id="clipPath376">
      <path
         d="m 223.32,315.574 h 48.281 v -12.88 H 223.32 Z"
         id="path374" />
    </clipPath>
    <clipPath
       clipPathUnits="userSpaceOnUse"
       id="clipPath400">
      <path
         d="m 245.371,380.82 h 8.838 v -17.264 h -8.838 z"
         id="path398" />
    </clipPath>
    <clipPath
       clipPathUnits="userSpaceOnUse"
       id="clipPath416">
      <path
         d="m 235.924,339.839 h 41.008 V 319.83 h -41.008 z"
         id="path414" />
    </clipPath>
    <clipPath
       clipPathUnits="userSpaceOnUse"
       id="clipPath512">
      <path
         d="M 0,500 H 500 V 0 H 0 Z"
         id="path510" />
    </clipPath>
  </defs>
  <sodipodi:namedview
     id="namedview4"
     pagecolor="#ffffff"
     bordercolor="#000000"
     borderopacity="0.25"
     inkscape:showpageshadow="2"
     inkscape:pageopacity="0.0"
     inkscape:pagecheckerboard="0"
     inkscape:deskcolor="#d1d1d1" />
  <g
     id="g8"
     inkscape:groupmode="layer"
     inkscape:label="7155155"
     transform="matrix(1.3333333,0,0,-1.3333333,0,666.66667)">
    <g
       id="g10">
      <g
         id="g12"
         clip-path="url(#clipPath16)">
        <g
           id="g18"
           transform="translate(370.1315,328.8513)">
          <path
             d="m 0,0 c 3.297,1.992 6.807,3.503 10.427,4.532 l 2.147,10.32 17.438,0.306 2.509,-10.238 c 3.655,-0.9 7.216,-2.286 10.581,-4.162 l 8.813,5.777 12.546,-12.115 -5.462,-9.008 c 1.993,-3.298 3.503,-6.809 4.531,-10.43 l 10.32,-2.147 0.306,-17.437 -10.238,-2.511 c -0.9,-3.653 -2.287,-7.213 -4.162,-10.579 l 5.775,-8.813 -12.112,-12.547 -9.01,5.463 c -3.297,-1.993 -6.808,-3.503 -10.428,-4.531 l -2.149,-10.321 -17.436,-0.306 -2.51,10.239 c -3.654,0.901 -7.214,2.287 -10.58,4.162 l -8.813,-5.776 -12.546,12.113 5.462,9.009 c -1.992,3.298 -3.504,6.808 -4.532,10.429 l -10.32,2.148 -0.306,17.437 10.239,2.51 c 0.9,3.654 2.288,7.214 4.162,10.579 l -5.776,8.814 12.113,12.546 z"
             style="fill:#ffffff;fill-opacity:1;fill-rule:nonzero;stroke:none"
             id="path20" />
        </g>
        <g
           id="g22"
           transform="translate(370.1315,328.8513)">
          <path
             d="M 0,0 C 0,0 -0.195,0.104 -0.581,0.33 -0.977,0.565 -1.55,0.904 -2.303,1.351 -3.839,2.27 -6.101,3.624 -9.054,5.392 l 0.102,0.013 C -12.03,2.199 -16.1,-2.041 -21.029,-7.175 l 0.015,0.164 c 1.755,-2.665 3.706,-5.629 5.794,-8.802 l 0.051,-0.077 -0.046,-0.081 c -1.724,-3.111 -3.175,-6.654 -4.129,-10.546 l -0.025,-0.1 -0.101,-0.025 c -3.189,-0.787 -6.642,-1.638 -10.234,-2.524 l 0.141,0.183 c 0.102,-5.49 0.211,-11.317 0.325,-17.437 l -0.163,0.197 c 3.195,-0.661 6.714,-1.39 10.322,-2.137 l 0.128,-0.027 0.035,-0.125 c 0.961,-3.385 2.463,-6.986 4.517,-10.371 l 0.071,-0.116 -0.071,-0.117 c -1.691,-2.794 -3.556,-5.875 -5.456,-9.013 l -0.037,0.287 c 3.943,-3.802 8.195,-7.903 12.554,-12.106 l -0.301,0.028 c 2.743,1.801 5.757,3.778 8.81,5.781 l 0.125,0.082 0.131,-0.073 c 3.094,-1.726 6.71,-3.201 10.519,-4.133 l 0.148,-0.037 0.036,-0.148 c 0.788,-3.207 1.646,-6.705 2.513,-10.238 l -0.252,0.194 c 5.521,0.098 11.438,0.203 17.437,0.31 l -0.249,-0.206 c 0.678,3.26 1.41,6.777 2.147,10.321 l 0.032,0.154 0.152,0.043 c 3.456,0.977 7.036,2.488 10.355,4.498 l 0.009,0.006 0.137,0.08 0.133,-0.081 c 3.023,-1.832 6.027,-3.654 9.01,-5.463 l -0.322,-0.041 c 4.09,4.235 8.131,8.42 12.114,12.545 l -0.03,-0.32 c -1.944,2.967 -3.868,5.905 -5.774,8.814 l -0.085,0.13 0.076,0.135 c 1.863,3.339 3.247,6.891 4.14,10.515 l 0.037,0.148 0.148,0.036 c 3.463,0.848 6.872,1.683 10.239,2.507 l -0.189,-0.246 c -0.102,5.953 -0.201,11.768 -0.298,17.438 l 0.191,-0.231 c -3.502,0.731 -6.94,1.449 -10.318,2.154 l -0.139,0.029 -0.039,0.136 c -1.052,3.718 -2.589,7.21 -4.499,10.376 l -0.07,0.117 0.07,0.117 c 1.876,3.087 3.694,6.08 5.47,9.004 l 0.035,-0.269 C 59.901,-1.469 55.738,2.558 51.776,6.391 L 52.024,6.368 C 48.922,4.34 46.011,2.437 43.204,0.602 L 43.109,0.54 43.011,0.595 C 39.48,2.564 35.941,3.893 32.48,4.754 L 32.379,4.779 32.355,4.88 c -0.906,3.723 -1.722,7.076 -2.493,10.241 l 0.152,-0.117 C 23.253,14.9 17.496,14.811 12.577,14.736 l 0.112,0.093 C 11.816,10.7 11.101,7.319 10.509,4.515 L 10.498,4.465 10.449,4.451 C 6.755,3.406 4.162,2.186 2.479,1.339 1.637,0.913 1.025,0.564 0.614,0.339 0.2,0.103 0,0 0,0 c 0,0 0.199,0.134 0.592,0.376 0.403,0.238 1.01,0.6 1.848,1.039 1.673,0.874 4.262,2.122 7.964,3.197 L 10.345,4.549 c 0.575,2.808 1.268,6.193 2.115,10.327 l 0.019,0.091 0.094,0.002 c 4.918,0.097 10.674,0.21 17.436,0.343 l 0.123,0.003 0.029,-0.12 C 30.942,12.031 31.769,8.681 32.688,4.961 L 32.562,5.086 C 36.053,4.229 39.626,2.899 43.193,0.921 L 42.999,0.914 c 2.803,1.842 5.709,3.752 8.806,5.787 l 0.133,0.088 0.115,-0.111 c 3.97,-3.825 8.14,-7.844 12.559,-12.102 l 0.124,-0.12 -0.09,-0.148 c -1.771,-2.926 -3.584,-5.922 -5.455,-9.013 l 10e-4,0.233 c 1.935,-3.197 3.493,-6.725 4.562,-10.482 l -0.176,0.165 c 3.379,-0.701 6.818,-1.415 10.32,-2.141 l 0.188,-0.039 0.003,-0.192 c 0.103,-5.669 0.208,-11.484 0.315,-17.437 l 0.004,-0.198 -0.193,-0.048 c -3.366,-0.826 -6.775,-1.663 -10.237,-2.513 l 0.185,0.184 c -0.902,-3.667 -2.3,-7.262 -4.184,-10.643 l -0.009,0.264 c 1.906,-2.908 3.832,-5.845 5.777,-8.812 l 0.113,-0.172 -0.143,-0.148 c -3.982,-4.126 -8.022,-8.312 -12.111,-12.548 l -0.144,-0.15 -0.178,0.108 c -2.983,1.808 -5.987,3.63 -9.01,5.462 h 0.27 l -0.01,-0.006 c -3.36,-2.035 -6.984,-3.563 -10.482,-4.552 l 0.183,0.197 c -0.738,-3.543 -1.47,-7.061 -2.149,-10.321 L 32.044,-88.696 31.837,-88.7 C 25.838,-88.804 19.921,-88.906 14.4,-89.002 l -0.204,-0.003 -0.048,0.198 c -0.865,3.533 -1.722,7.032 -2.507,10.239 l 0.185,-0.185 c -3.854,0.947 -7.512,2.441 -10.64,4.191 l 0.256,0.009 c -3.055,-2 -6.07,-3.974 -8.816,-5.772 l -0.162,-0.106 -0.139,0.134 c -4.354,4.209 -8.601,8.314 -12.54,12.121 l -0.133,0.129 0.096,0.159 c 1.904,3.135 3.774,6.214 5.469,9.005 v -0.233 c -2.071,3.425 -3.583,7.065 -4.546,10.486 l 0.162,-0.152 c -3.606,0.754 -7.124,1.49 -10.317,2.158 l -0.161,0.034 -0.003,0.163 c -0.1,6.12 -0.196,11.947 -0.286,17.437 l -0.003,0.149 0.144,0.035 c 3.595,0.876 7.051,1.719 10.242,2.496 l -0.125,-0.125 c 0.973,3.92 2.446,7.486 4.194,10.613 l 0.006,-0.158 c -2.076,3.18 -4.015,6.152 -5.759,8.824 l -0.058,0.089 0.074,0.075 c 4.957,5.107 9.051,9.323 12.148,12.513 l 0.046,0.048 0.057,-0.035 C -6.047,3.741 -3.81,2.367 -2.292,1.435 -1.543,0.971 -0.973,0.617 -0.579,0.373 -0.195,0.133 0,0 0,0"
             style="fill:#e1e1e1;fill-opacity:1;fill-rule:nonzero;stroke:none"
             id="path24" />
        </g>
        <g
           id="g26"
           transform="translate(150.645,303.341)">
          <path
             d="m 0,0 c 3.532,2.134 7.292,3.753 11.17,4.855 l 2.301,11.057 18.682,0.328 2.688,-10.969 c 3.915,-0.964 7.731,-2.45 11.336,-4.459 l 9.442,6.189 13.441,-12.979 -5.852,-9.651 c 2.135,-3.533 3.754,-7.295 4.854,-11.174 l 11.056,-2.3 0.329,-18.682 -10.969,-2.689 c -0.964,-3.914 -2.45,-7.728 -4.459,-11.334 l 6.188,-9.442 -12.977,-13.442 -9.652,5.852 c -3.533,-2.134 -7.294,-3.752 -11.173,-4.854 l -2.301,-11.057 -18.681,-0.328 -2.689,10.97 c -3.915,0.964 -7.729,2.45 -11.335,4.459 l -9.441,-6.189 -13.442,12.978 5.852,9.652 c -2.135,3.533 -3.754,7.293 -4.855,11.173 l -11.056,2.301 -0.328,18.681 10.969,2.689 c 0.964,3.914 2.451,7.729 4.459,11.334 l -6.188,9.442 12.977,13.442 z"
             style="fill:#ffffff;fill-opacity:1;fill-rule:nonzero;stroke:none"
             id="path28" />
        </g>
        <g
           id="g30"
           transform="translate(150.645,303.341)">
          <path
             d="M 0,0 C 0,0 -0.209,0.112 -0.622,0.355 -1.045,0.606 -1.659,0.97 -2.467,1.45 -4.11,2.434 -6.533,3.886 -9.697,5.782 l 0.102,0.013 c -3.298,-3.434 -7.659,-7.976 -12.941,-13.476 l 0.015,0.164 c 1.879,-2.855 3.969,-6.031 6.206,-9.43 l 0.05,-0.077 -0.045,-0.081 c -1.848,-3.334 -3.403,-7.131 -4.426,-11.301 l -0.025,-0.1 -0.101,-0.025 c -3.416,-0.842 -7.116,-1.755 -10.965,-2.704 l 0.141,0.184 c 0.11,-5.882 0.226,-12.125 0.348,-18.681 l -0.164,0.197 c 3.423,-0.709 7.194,-1.49 11.059,-2.291 l 0.127,-0.026 0.036,-0.126 c 1.029,-3.628 2.639,-7.487 4.84,-11.115 l 0.071,-0.116 -0.071,-0.117 c -1.812,-2.992 -3.81,-6.293 -5.846,-9.655 l -0.037,0.287 c 4.224,-4.074 8.78,-8.467 13.449,-12.971 l -0.301,0.029 c 2.939,1.929 6.168,4.047 9.439,6.193 l 0.125,0.082 0.131,-0.073 c 3.316,-1.851 7.191,-3.431 11.274,-4.431 l 0.148,-0.036 0.036,-0.148 c 0.844,-3.436 1.763,-7.183 2.693,-10.969 l -0.253,0.194 c 5.915,0.105 12.254,0.218 18.681,0.332 l -0.249,-0.206 c 0.727,3.492 1.511,7.261 2.301,11.057 l 0.032,0.155 0.151,0.043 c 3.704,1.047 7.541,2.666 11.099,4.82 l 0.01,0.006 0.136,0.081 0.134,-0.081 c 3.238,-1.963 6.456,-3.915 9.652,-5.853 l -0.322,-0.041 c 4.382,4.537 8.711,9.021 12.978,13.44 l -0.03,-0.32 c -2.082,3.179 -4.144,6.327 -6.186,9.443 l -0.084,0.13 0.075,0.135 c 1.997,3.579 3.48,7.386 4.437,11.269 l 0.037,0.149 0.148,0.036 c 3.71,0.908 7.363,1.802 10.97,2.685 l -0.189,-0.245 c -0.11,6.378 -0.216,12.607 -0.32,18.681 l 0.191,-0.23 c -3.752,0.783 -7.436,1.552 -11.055,2.307 l -0.139,0.029 -0.038,0.136 c -1.129,3.984 -2.775,7.727 -4.823,11.12 l -0.07,0.117 0.07,0.117 c 2.01,3.308 3.958,6.515 5.86,9.646 L 68.91,-6.134 C 64.185,-1.563 59.725,2.751 55.48,6.857 L 55.728,6.834 C 52.404,4.661 49.286,2.622 46.279,0.656 L 46.185,0.594 46.086,0.649 C 42.302,2.759 38.509,4.182 34.801,5.105 L 34.7,5.13 34.675,5.231 c -0.971,3.989 -1.846,7.58 -2.672,10.972 l 0.153,-0.117 C 24.911,15.973 18.743,15.877 13.474,15.795 l 0.112,0.093 C 12.652,11.464 11.887,7.842 11.253,4.838 L 11.242,4.788 11.193,4.774 C 7.235,3.653 4.457,2.345 2.655,1.437 1.752,0.98 1.097,0.607 0.657,0.364 0.214,0.111 0,0 0,0 0,0 0.214,0.143 0.635,0.402 1.067,0.656 1.718,1.043 2.615,1.513 4.408,2.448 7.182,3.785 11.147,4.935 L 11.088,4.872 c 0.617,3.008 1.361,6.635 2.269,11.064 l 0.019,0.091 0.094,0.002 c 5.269,0.103 11.436,0.223 18.68,0.364 l 0.123,0.003 0.03,-0.12 C 33.139,12.887 34.024,9.298 35.008,5.312 L 34.883,5.437 C 38.621,4.518 42.448,3.094 46.268,0.975 L 46.074,0.968 c 3.003,1.973 6.117,4.019 9.435,6.2 l 0.133,0.087 0.115,-0.111 c 4.252,-4.098 8.72,-8.404 13.454,-12.966 l 0.124,-0.12 -0.09,-0.148 c -1.897,-3.135 -3.84,-6.345 -5.844,-9.656 v 0.233 c 2.072,-3.424 3.741,-7.202 4.886,-11.226 l -0.177,0.165 c 3.62,-0.751 7.305,-1.516 11.057,-2.295 l 0.188,-0.039 0.003,-0.191 c 0.11,-6.074 0.222,-12.304 0.337,-18.681 l 0.003,-0.198 -0.192,-0.048 c -3.606,-0.885 -7.258,-1.782 -10.968,-2.693 l 0.185,0.185 c -0.966,-3.927 -2.463,-7.778 -4.481,-11.398 l -0.009,0.264 c 2.043,-3.116 4.106,-6.262 6.189,-9.441 l 0.113,-0.172 -0.143,-0.148 c -4.266,-4.42 -8.594,-8.905 -12.975,-13.444 l -0.144,-0.149 -0.178,0.108 c -3.196,1.937 -6.414,3.889 -9.652,5.852 h 0.269 l -0.01,-0.006 c -3.598,-2.179 -7.48,-3.817 -11.226,-4.876 l 0.184,0.197 c -0.791,-3.796 -1.576,-7.565 -2.303,-11.056 l -0.042,-0.203 -0.207,-0.004 c -6.427,-0.111 -12.766,-0.221 -18.681,-0.324 l -0.204,-0.003 -0.048,0.198 c -0.927,3.786 -1.845,7.534 -2.686,10.97 l 0.184,-0.185 c -4.127,1.014 -8.044,2.614 -11.394,4.488 l 0.256,0.009 C -1.738,-82 -4.968,-84.116 -7.909,-86.042 l -0.162,-0.106 -0.14,0.135 c -4.664,4.508 -9.215,8.907 -13.434,12.985 l -0.134,0.129 0.096,0.159 c 2.04,3.359 4.043,6.657 5.859,9.647 v -0.232 c -2.218,3.667 -3.838,7.566 -4.87,11.23 l 0.163,-0.152 c -3.864,0.808 -7.633,1.595 -11.054,2.311 l -0.161,0.033 -0.002,0.164 c -0.109,6.557 -0.212,12.8 -0.309,18.681 l -0.002,0.149 0.144,0.035 c 3.851,0.939 7.553,1.842 10.972,2.675 l -0.125,-0.125 c 1.041,4.199 2.619,8.018 4.491,11.367 l 0.006,-0.158 c -2.224,3.408 -4.302,6.592 -6.171,9.454 l -0.058,0.088 0.074,0.076 c 5.31,5.472 9.696,9.991 13.012,13.408 l 0.046,0.048 0.057,-0.035 C -6.48,4.003 -4.082,2.532 -2.455,1.534 -1.652,1.037 -1.041,0.659 -0.621,0.398 -0.209,0.141 0,0 0,0"
             style="fill:#e1e1e1;fill-opacity:1;fill-rule:nonzero;stroke:none"
             id="path32" />
        </g>
        <g
           id="g34"
           transform="translate(195.7689,270.4527)">
          <path
             d="m 0,0 c -0.011,11.783 -9.573,21.327 -21.357,21.315 -11.783,-0.011 -21.326,-9.573 -21.315,-21.356 0.008,-8.531 5.024,-15.885 12.263,-19.292 0.003,-2.528 0.006,-5.383 0.006,-5.383 l 18.7,0.018 c 0,0 0.11,3.021 0.149,5.718 C -4.686,-15.43 0.008,-8.264 0,0"
             style="fill:#f5f5f5;fill-opacity:1;fill-rule:nonzero;stroke:none"
             id="path36" />
        </g>
        <g
           id="g38"
           transform="translate(177.3033,245.837)">
          <path
             d="m 0,0 c 0,0 0.003,0.09 0.021,0.263 0.02,0.184 0.049,0.44 0.086,0.77 0.082,0.676 0.201,1.673 0.388,2.953 0.189,1.279 0.439,2.844 0.844,4.639 0.414,1.789 0.979,3.821 1.931,5.939 0.477,1.058 1.029,2.142 1.752,3.194 0.371,0.515 0.836,1.018 1.457,1.312 0.62,0.297 1.397,0.298 2.026,-0.064 C 8.816,18.826 9.08,18.524 9.181,18.162 9.295,17.806 9.259,17.401 9.093,17.067 8.764,16.392 8.136,15.921 7.447,15.645 6.038,15.151 4.414,15.273 3.01,15.955 c -1.408,0.68 -2.533,1.993 -3.016,3.557 -0.231,0.777 -0.357,1.629 -0.128,2.461 0.2,0.828 1.005,1.569 1.937,1.485 0.463,-0.034 0.882,-0.35 1.087,-0.752 0.214,-0.4 0.269,-0.874 0.173,-1.315 C 2.858,20.5 2.216,19.834 1.565,19.269 0.221,18.157 -1.61,17.538 -3.407,17.822 c -1.786,0.283 -3.39,1.462 -4.129,3.071 -0.388,0.792 -0.481,1.753 -0.147,2.585 0.169,0.41 0.494,0.793 0.935,0.944 0.435,0.168 0.926,0.089 1.314,-0.119 0.392,-0.207 0.711,-0.547 0.901,-0.936 0.198,-0.387 0.29,-0.812 0.327,-1.229 0.061,-0.836 -0.057,-1.667 -0.322,-2.438 -0.519,-1.548 -1.622,-2.854 -3.004,-3.581 -1.376,-0.736 -2.975,-0.932 -4.414,-0.612 -0.711,0.157 -1.439,0.44 -1.922,1.017 -0.473,0.563 -0.607,1.456 -0.12,2.055 0.241,0.289 0.605,0.443 0.958,0.47 0.355,0.025 0.707,-0.046 1.018,-0.197 0.634,-0.312 1.021,-0.899 1.307,-1.463 0.538,-1.156 0.969,-2.28 1.406,-3.354 1.711,-4.298 2.925,-7.84 3.738,-10.295 0.406,-1.228 0.706,-2.186 0.907,-2.836 0.096,-0.318 0.17,-0.564 0.223,-0.741 0.049,-0.168 0.068,-0.256 0.068,-0.256 0,0 -0.036,0.083 -0.093,0.247 -0.059,0.176 -0.142,0.42 -0.248,0.734 -0.222,0.655 -0.542,1.604 -0.954,2.82 -0.842,2.443 -2.082,5.973 -3.813,10.258 -0.439,1.065 -0.883,2.202 -1.414,3.332 -0.278,0.546 -0.655,1.093 -1.218,1.365 -0.545,0.268 -1.31,0.265 -1.718,-0.223 -0.401,-0.485 -0.296,-1.279 0.125,-1.772 0.431,-0.515 1.112,-0.788 1.8,-0.936 1.385,-0.305 2.929,-0.112 4.25,0.6 1.325,0.701 2.384,1.958 2.881,3.448 0.254,0.741 0.365,1.544 0.306,2.337 -0.058,0.779 -0.385,1.595 -1.095,1.959 -0.34,0.181 -0.749,0.243 -1.106,0.104 -0.362,-0.124 -0.633,-0.437 -0.784,-0.802 -0.297,-0.747 -0.222,-1.631 0.145,-2.376 0.698,-1.522 2.235,-2.654 3.933,-2.921 1.71,-0.272 3.473,0.32 4.764,1.389 0.631,0.542 1.235,1.189 1.411,1.976 0.086,0.384 0.036,0.797 -0.146,1.138 C 2.486,22.926 2.154,23.173 1.778,23.202 1.403,23.239 1.015,23.098 0.717,22.859 0.416,22.622 0.216,22.276 0.11,21.903 -0.101,21.149 0.012,20.329 0.234,19.586 0.693,18.087 1.771,16.825 3.117,16.172 4.456,15.513 6.036,15.397 7.362,15.86 8.008,16.113 8.6,16.565 8.89,17.161 9.198,17.754 8.958,18.512 8.394,18.819 7.843,19.142 7.126,19.149 6.568,18.88 5.994,18.611 5.549,18.14 5.185,17.639 4.475,16.615 3.915,15.533 3.439,14.488 2.483,12.391 1.908,10.372 1.482,8.591 1.064,6.806 0.8,5.246 0.596,3.971 0.408,2.701 0.261,1.71 0.16,1.026 0.111,0.697 0.074,0.443 0.047,0.26 0.02,0.087 0,0 0,0"
             style="fill:#e1e1e1;fill-opacity:1;fill-rule:nonzero;stroke:none"
             id="path40" />
        </g>
        <g
           id="g42"
           transform="translate(182.6297,242.2913)">
          <path
             d="m 0,0 -16.056,-0.015 c -0.666,-0.001 -1.206,0.538 -1.206,1.203 -0.001,0.666 0.538,1.206 1.204,1.207 L -0.002,2.41 C 0.663,2.411 1.203,1.872 1.204,1.206 1.204,0.541 0.666,0.001 0,0"
             style="fill:#e1e1e1;fill-opacity:1;fill-rule:nonzero;stroke:none"
             id="path44" />
        </g>
        <g
           id="g46"
           transform="translate(182.6307,241.239)">
          <path
             d="m 0,0 -16.056,-0.015 c -0.665,-0.001 -1.204,-0.541 -1.204,-1.206 0.001,-0.666 0.541,-1.205 1.206,-1.204 l 1.763,10e-4 2.342,-4.448 c 0.268,-0.509 0.796,-0.827 1.371,-0.826 l 5.738,0.005 c 0.58,10e-4 1.112,0.326 1.376,0.844 l 2.268,4.438 1.198,10e-4 c 0.666,0.001 1.205,0.541 1.204,1.206 C 1.206,-0.538 0.666,0.001 0,0"
             style="fill:#e1e1e1;fill-opacity:1;fill-rule:nonzero;stroke:none"
             id="path48" />
        </g>
        <g
           id="g50"
           transform="translate(168.2701,287.817)">
          <path
             d="m 0,0 c -0.807,-0.082 -1.953,-0.368 -3.287,-0.959 -1.334,-0.586 -2.837,-1.518 -4.27,-2.844 -1.601,-1.562 -2.926,-3.238 -3.742,-5.124 -0.948,-2.074 -1.407,-4.222 -1.487,-6.169 -0.084,-1.952 0.178,-3.7 0.593,-5.097 0.413,-1.399 0.937,-2.458 1.396,-3.127 0.458,-0.67 0.814,-0.97 0.969,-0.89 0.355,0.18 -0.251,1.785 -0.549,4.388 -0.315,2.577 -0.171,6.265 1.457,9.794 1.637,3.523 4.355,6.018 6.524,7.444 2.179,1.458 3.795,2.034 3.702,2.421 C 1.267,0.007 0.807,0.085 0,0"
             style="fill:#fafafa;fill-opacity:1;fill-rule:nonzero;stroke:none"
             id="path52" />
        </g>
        <g
           id="g54"
           transform="translate(176.733,288.8471)">
          <path
             d="M 0,0 C -0.483,0.3 -1.206,0.509 -2.014,0.513 -2.822,0.516 -3.547,0.312 -4.032,0.017 -4.52,-0.279 -4.77,-0.658 -4.71,-1.013 c 0.139,-0.716 1.333,-1.084 2.685,-1.096 1.129,-0.033 2.338,0.278 2.695,1.074 C 0.732,-0.681 0.486,-0.3 0,0"
             style="fill:#fafafa;fill-opacity:1;fill-rule:nonzero;stroke:none"
             id="path56" />
        </g>
        <g
           id="g58"
           transform="translate(178.8685,234.0091)">
          <path
             d="m 0,0 c -0.019,-0.04 -0.423,0.144 -1.103,0.339 -0.679,0.196 -1.648,0.37 -2.724,0.34 -1.077,-0.034 -2.034,-0.266 -2.7,-0.503 -0.667,-0.234 -1.059,-0.442 -1.081,-0.403 -0.015,0.023 0.348,0.291 1.015,0.577 0.664,0.286 1.646,0.556 2.758,0.591 1.111,0.031 2.108,-0.179 2.788,-0.426 C -0.365,0.27 0.013,0.025 0,0"
             style="fill:#ececec;fill-opacity:1;fill-rule:nonzero;stroke:none"
             id="path60" />
        </g>
        <g
           id="g62"
           transform="translate(181.4694,238.7735)">
          <path
             d="m 0,0 c 0,-0.072 -2.903,-0.134 -6.483,-0.137 -3.58,-0.004 -6.483,0.052 -6.483,0.124 0,0.073 2.902,0.134 6.483,0.138 C -2.903,0.128 0,0.072 0,0"
             style="fill:#ececec;fill-opacity:1;fill-rule:nonzero;stroke:none"
             id="path64" />
        </g>
        <g
           id="g66"
           transform="translate(180.4663,236.868)">
          <path
             d="m 0,0 c 0.002,-0.035 -0.602,-0.1 -1.581,-0.162 -0.979,-0.063 -2.332,-0.12 -3.829,-0.143 -1.496,-0.022 -2.852,-0.006 -3.832,0.027 -0.98,0.033 -1.585,0.079 -1.585,0.115 10e-4,0.037 0.607,0.056 1.587,0.07 1.058,0.014 2.373,0.031 3.826,0.05 1.454,0.025 2.768,0.048 3.826,0.066 C -0.609,0.038 -0.002,0.037 0,0"
             style="fill:#ececec;fill-opacity:1;fill-rule:nonzero;stroke:none"
             id="path68" />
        </g>
        <g
           id="g70"
           transform="translate(296.3259,268.4611)">
          <path
             d="m 0,0 c 2.673,1.259 5.47,2.133 8.312,2.631 l 2.456,7.703 13.326,-1.147 1.104,-8.008 c 2.716,-0.976 5.323,-2.316 7.741,-4.013 l 7.18,3.709 8.612,-10.234 -4.88,-6.439 c 1.259,-2.674 2.134,-5.472 2.631,-8.315 l 7.702,-2.455 -1.146,-13.326 -8.009,-1.104 c -0.976,-2.716 -2.316,-5.322 -4.012,-7.741 l 3.708,-7.18 -10.233,-8.612 -6.441,4.88 c -2.673,-1.259 -5.47,-2.133 -8.313,-2.631 l -2.456,-7.703 -13.325,1.147 -1.105,8.009 c -2.715,0.977 -5.322,2.316 -7.741,4.013 l -7.179,-3.709 -8.612,10.234 4.88,6.44 c -1.259,2.673 -2.134,5.47 -2.632,8.313 l -7.702,2.456 1.147,13.325 8.008,1.105 c 0.976,2.716 2.317,5.322 4.013,7.741 l -3.709,7.18 10.234,8.612 z"
             style="fill:#f5f5f5;fill-opacity:1;fill-rule:nonzero;stroke:none"
             id="path72" />
        </g>
        <g
           id="g74"
           transform="translate(70.7489,355.5386)">
          <path
             d="m 0,0 c 2.652,1.537 5.466,2.687 8.36,3.452 l 1.859,8.179 13.876,-0.011 1.846,-8.181 c 2.894,-0.77 5.707,-1.924 8.356,-3.465 l 7.095,4.466 9.803,-9.82 -4.476,-7.086 c 1.537,-2.652 2.687,-5.467 3.452,-8.362 l 8.177,-1.859 -0.011,-13.875 -8.18,-1.848 c -0.77,-2.892 -1.925,-5.705 -3.466,-8.354 l 4.466,-7.095 -9.818,-9.804 -7.087,4.477 c -2.653,-1.537 -5.467,-2.687 -8.362,-3.452 l -1.859,-8.178 -13.875,0.011 -1.847,8.181 c -2.894,0.77 -5.706,1.925 -8.355,3.465 l -7.095,-4.466 -9.804,9.819 4.477,7.087 c -1.537,2.652 -2.688,5.466 -3.452,8.362 l -8.178,1.859 0.011,13.875 8.181,1.847 c 0.769,2.893 1.925,5.706 3.465,8.355 l -4.466,7.095 9.819,9.803 z"
             style="fill:#f5f5f5;fill-opacity:1;fill-rule:nonzero;stroke:none"
             id="path76" />
        </g>
        <g
           id="g78"
           transform="translate(303.5684,321.7301)">
          <path
             d="m 0,0 c -3.513,-3.638 -3.411,-9.434 0.228,-12.947 3.637,-3.512 9.434,-3.41 12.946,0.228 3.512,3.638 3.41,9.435 -0.228,12.947 C 9.308,3.74 3.512,3.638 0,0 m -4.549,11.368 c 1.613,0.975 3.331,1.715 5.103,2.218 l 1.051,5.051 8.533,0.15 1.229,-5.011 c 1.788,-0.44 3.531,-1.119 5.178,-2.037 l 4.313,2.827 6.14,-5.928 -2.673,-4.409 C 25.3,2.615 26.039,0.896 26.542,-0.875 l 5.051,-1.051 0.15,-8.534 -5.011,-1.228 c -0.44,-1.788 -1.119,-3.531 -2.037,-5.178 l 2.827,-4.313 -5.928,-6.14 -4.409,2.673 c -1.614,-0.975 -3.332,-1.714 -5.104,-2.217 l -1.051,-5.051 -8.534,-0.15 -1.228,5.011 c -1.788,0.441 -3.531,1.119 -5.178,2.037 l -4.313,-2.827 -6.14,5.928 2.673,4.409 c -0.975,1.614 -1.715,3.332 -2.218,5.104 l -5.05,1.051 -0.15,8.533 5.011,1.229 c 0.44,1.788 1.119,3.531 2.037,5.178 l -2.827,4.313 5.928,6.14 z"
             style="fill:#f5f5f5;fill-opacity:1;fill-rule:nonzero;stroke:none"
             id="path80" />
        </g>
        <g
           id="g82"
           transform="translate(148.989,370.2386)">
          <path
             d="m 0,0 c -3.763,-3.898 -3.654,-10.107 0.244,-13.87 3.897,-3.763 10.107,-3.654 13.87,0.244 3.762,3.897 3.654,10.107 -0.244,13.87 C 9.973,4.007 3.763,3.897 0,0 m -4.874,12.179 c 1.729,1.045 3.569,1.837 5.467,2.376 l 1.126,5.412 9.143,0.16 1.316,-5.368 c 1.916,-0.472 3.783,-1.199 5.547,-2.182 l 4.621,3.028 6.578,-6.351 -2.864,-4.723 c 1.045,-1.73 1.837,-3.571 2.376,-5.469 l 5.411,-1.126 0.16,-9.142 -5.368,-1.316 c -0.472,-1.916 -1.199,-3.783 -2.182,-5.547 l 3.028,-4.621 -6.35,-6.579 -4.724,2.865 c -1.729,-1.045 -3.57,-1.837 -5.468,-2.376 l -1.126,-5.411 -9.143,-0.161 -1.316,5.369 c -1.916,0.472 -3.782,1.199 -5.547,2.182 l -4.62,-3.029 -6.579,6.352 2.864,4.723 c -1.045,1.729 -1.837,3.57 -2.376,5.468 l -5.411,1.126 -0.16,9.143 5.368,1.316 c 0.472,1.915 1.199,3.782 2.182,5.547 l -3.028,4.621 6.351,6.578 z"
             style="fill:#f5f5f5;fill-opacity:1;fill-rule:nonzero;stroke:none"
             id="path84" />
        </g>
        <g
           id="g86"
           transform="translate(420.0973,287.9316)">
          <path
             d="m 0,0 c 0,-15.639 -12.678,-28.317 -28.317,-28.317 -15.639,0 -28.317,12.678 -28.317,28.317 0,15.639 12.678,28.317 28.317,28.317 C -12.678,28.317 0,15.639 0,0"
             style="fill:#e1e1e1;fill-opacity:1;fill-rule:nonzero;stroke:none"
             id="path88" />
        </g>
        <g
           id="g90"
           transform="translate(420.0973,291.0592)">
          <path
             d="m 0,0 c 0,-15.639 -12.678,-28.317 -28.317,-28.317 -15.639,0 -28.317,12.678 -28.317,28.317 0,15.639 12.678,28.317 28.317,28.317 C -12.678,28.317 0,15.639 0,0"
             style="fill:#ececec;fill-opacity:1;fill-rule:nonzero;stroke:none"
             id="path92" />
        </g>
        <g
           id="g94"
           transform="translate(410.7474,291.0592)">
          <path
             d="m 0,0 c 0,-10.475 -8.492,-18.967 -18.967,-18.967 -10.475,0 -18.967,8.492 -18.967,18.967 0,10.475 8.492,18.967 18.967,18.967 C -8.492,18.967 0,10.475 0,0"
             style="fill:#ffffff;fill-opacity:1;fill-rule:nonzero;stroke:none"
             id="path96" />
        </g>
        <g
           id="g98"
           transform="translate(401.0622,291.0592)">
          <path
             d="m 0,0 c 0,-5.126 -4.156,-9.282 -9.282,-9.282 -5.126,0 -9.282,4.156 -9.282,9.282 0,5.126 4.156,9.282 9.282,9.282 C -4.156,9.282 0,5.126 0,0"
             style="fill:#ececec;fill-opacity:1;fill-rule:nonzero;stroke:none"
             id="path100" />
        </g>
        <g
           id="g102"
           transform="translate(410.8582,311.3816)">
          <path
             d="M 0,0 -0.769,6.041 5.38,12.623 5.823,6.103 Z"
             style="fill:#ececec;fill-opacity:1;fill-rule:nonzero;stroke:none"
             id="path104" />
        </g>
        <g
           id="g106"
           transform="translate(424.0573,316.1891)">
          <path
             d="m 0,0 -6.239,0.508 -6.253,-6.016 6.255,-0.668 z"
             style="fill:#ececec;fill-opacity:1;fill-rule:nonzero;stroke:none"
             id="path108" />
        </g>
        <g
           id="g110"
           transform="translate(416.514,317.8815)">
          <path
             d="m 0,0 c -2.818,-2.842 -5.636,-5.684 -8.454,-8.526 -4.471,-4.508 -8.942,-9.017 -13.412,-13.525 -1.028,-1.036 -2.056,-2.073 -3.084,-3.109 -0.977,-0.985 0.549,-2.506 1.527,-1.52 2.818,2.842 5.636,5.684 8.454,8.526 4.471,4.509 8.942,9.017 13.412,13.525 1.028,1.037 2.056,2.073 3.084,3.11 C 2.504,-0.534 0.978,0.986 0,0"
             style="fill:#e1e1e1;fill-opacity:1;fill-rule:nonzero;stroke:none"
             id="path112" />
        </g>
        <g
           id="g114"
           transform="translate(330.2605,51.1749)">
          <path
             d="m 0,0 -53.945,0.194 0.078,21.723 53.945,-0.194 z"
             style="fill:#ececec;fill-opacity:1;fill-rule:nonzero;stroke:none"
             id="path116" />
        </g>
        <g
           id="g118"
           transform="translate(343.4561,62.7632)">
          <path
             d="m 0,0 -7.365,-8.443 -7.366,-8.443 0.061,16.939 0.062,16.939 7.304,-8.496 z"
             style="fill:#ececec;fill-opacity:1;fill-rule:nonzero;stroke:none"
             id="path120" />
        </g>
        <g
           id="g122"
           transform="translate(131.8191,421.1462)">
          <path
             d="m 0,0 -58.94,0.212 0.086,23.735 58.94,-0.213 z"
             style="fill:#f5f5f5;fill-opacity:1;fill-rule:nonzero;stroke:none"
             id="path124" />
        </g>
        <g
           id="g126"
           transform="translate(146.2365,433.8076)">
          <path
             d="m 0,0 -8.047,-9.225 -8.047,-9.225 0.066,18.508 0.067,18.507 7.981,-9.282 z"
             style="fill:#f5f5f5;fill-opacity:1;fill-rule:nonzero;stroke:none"
             id="path128" />
        </g>
        <g
           id="g130"
           transform="translate(394.0218,84.5416)">
          <path
             d="m 0,0 -25.736,0.093 0.038,10.363 25.735,-0.093 z"
             style="fill:#ececec;fill-opacity:1;fill-rule:nonzero;stroke:none"
             id="path132" />
        </g>
        <g
           id="g134"
           transform="translate(400.317,90.0701)">
          <path
             d="m 0,0 -3.514,-4.028 -3.513,-4.028 0.029,8.081 0.029,8.081 3.484,-4.053 z"
             style="fill:#ececec;fill-opacity:1;fill-rule:nonzero;stroke:none"
             id="path136" />
        </g>
        <g
           id="g138"
           transform="translate(75.6472,105.9129)">
          <path
             d="m 0,0 -32.931,0.119 0.048,13.26 32.931,-0.118 z"
             style="fill:#ececec;fill-opacity:1;fill-rule:nonzero;stroke:none"
             id="path140" />
        </g>
        <g
           id="g142"
           transform="translate(83.7025,112.987)">
          <path
             d="m 0,0 -4.496,-5.154 -4.496,-5.154 0.037,10.34 0.037,10.341 4.459,-5.187 z"
             style="fill:#ececec;fill-opacity:1;fill-rule:nonzero;stroke:none"
             id="path144" />
        </g>
        <g
           id="g146"
           transform="translate(346.0288,366.7895)">
          <path
             d="m 0,0 -32.931,0.119 0.048,13.26 32.931,-0.118 z"
             style="fill:#ececec;fill-opacity:1;fill-rule:nonzero;stroke:none"
             id="path148" />
        </g>
        <g
           id="g150"
           transform="translate(354.084,373.8636)">
          <path
             d="m 0,0 -4.496,-5.154 -4.496,-5.154 0.037,10.34 0.037,10.341 4.459,-5.187 z"
             style="fill:#ececec;fill-opacity:1;fill-rule:nonzero;stroke:none"
             id="path152" />
        </g>
        <g
           id="g154"
           transform="translate(432.3101,391.9815)">
          <path
             d="m 0,0 -54.981,0.396 0.159,22.14 L 0.16,22.14 Z"
             style="fill:#f5f5f5;fill-opacity:1;fill-rule:nonzero;stroke:none"
             id="path156" />
        </g>
        <g
           id="g158"
           transform="translate(445.8019,403.7441)">
          <path
             d="m 0,0 -7.538,-8.578 -7.538,-8.579 0.125,17.265 0.124,17.264 7.414,-8.686 z"
             style="fill:#f5f5f5;fill-opacity:1;fill-rule:nonzero;stroke:none"
             id="path160" />
        </g>
      </g>
    </g>
    <g
       id="g162">
      <g
         id="g164"
         clip-path="url(#clipPath168)">
        <g
           id="g170"
           transform="translate(75.2948,391.0489)">
          <path
             d="m 0,0 1.192,3.484 c 10.052,29.37 35.071,51.229 65.474,55.903 3.908,0.601 7.861,0.92 11.825,0.939 28.544,0.137 56.785,-15.283 72.404,-39.534 9.185,-14.263 14.719,-31.79 28.394,-41.712 17.798,-12.913 42.158,-8.104 63.332,-2.768 21.174,5.335 45.563,10.085 63.305,-2.907 11.112,-8.136 17.084,-21.861 19.325,-35.526 5.936,-36.181 -11.979,-73.619 -40.19,-96.457 -28.21,-22.839 -65.213,-32.438 -101.431,-33.046 -50.738,-0.85 -102.841,15.925 -139.719,51.387 C 7.033,-104.775 -12.398,-49.712 0,0"
             style="fill:#f5f5f5;fill-opacity:1;fill-rule:nonzero;stroke:none"
             id="path172" />
        </g>
      </g>
    </g>
    <g
       id="g174"
       transform="translate(459.1703,140.2042)">
      <path
         d="m 0,0 -108.065,0.39 0.157,43.516 108.065,-0.39 z"
         style="fill:#ff735d;fill-opacity:1;fill-rule:nonzero;stroke:none"
         id="path176" />
    </g>
    <g
       id="g178"
       transform="translate(485.6042,163.4185)">
      <path
         d="m 0,0 -14.754,-16.913 -14.755,-16.914 0.122,33.933 0.123,33.933 14.632,-17.02 z"
         style="fill:#ff735d;fill-opacity:1;fill-rule:nonzero;stroke:none"
         id="path180" />
    </g>
    <g
       id="g182"
       transform="translate(123.1415,139.6723)">
      <path
         d="m 0,0 -108.065,0.39 0.157,43.516 108.065,-0.39 z"
         style="fill:#ff735d;fill-opacity:1;fill-rule:nonzero;stroke:none"
         id="path184" />
    </g>
    <g
       id="g186"
       transform="translate(149.5754,162.8866)">
      <path
         d="m 0,0 -14.755,-16.913 -14.754,-16.914 0.122,33.933 0.123,33.933 14.632,-17.02 z"
         style="fill:#ff735d;fill-opacity:1;fill-rule:nonzero;stroke:none"
         id="path188" />
    </g>
    <g
       id="g190">
      <g
         id="g192"
         clip-path="url(#clipPath196)">
        <g
           id="g198"
           transform="translate(295.2307,414.3404)">
          <path
             d="M 0,0 1.13,7.086 C -1.708,11.707 -3.213,17.234 -2.84,23.134 -1.96,37.05 9.585,48.217 23.521,48.665 39.624,49.183 52.72,35.766 51.684,19.567 50.805,5.815 39.525,-5.267 25.761,-5.925 18.931,-6.252 12.625,-4.063 7.675,-0.214 l 0.009,-0.012 z"
             style="fill:#ffffff;fill-opacity:1;fill-rule:nonzero;stroke:none"
             id="path200" />
        </g>
        <g
           id="g202"
           transform="translate(295.2307,414.3404)">
          <path
             d="m 0,0 c 0,0 0.155,-0.017 0.479,-0.034 0.352,-0.016 0.836,-0.038 1.46,-0.067 1.331,-0.054 3.257,-0.131 5.742,-0.231 0.058,-0.002 0.107,0.043 0.109,0.101 0.001,0.025 -0.008,0.05 -0.022,0.068 0,0 -0.006,0.008 -0.009,0.013 L 7.61,-0.298 c 2.67,-2.092 6.691,-4.461 12.052,-5.413 2.665,-0.483 5.627,-0.571 8.737,-0.152 3.102,0.444 6.333,1.478 9.407,3.185 3.063,1.72 5.95,4.13 8.319,7.157 2.359,3.021 4.252,6.656 5.142,10.694 0.921,4.02 0.941,8.378 -0.048,12.622 -0.964,4.256 -3.1,8.328 -6.094,11.736 -1.476,1.765 -3.257,3.211 -5.068,4.543 -0.952,0.598 -1.896,1.21 -2.881,1.726 l -1.505,0.716 -0.752,0.351 -0.78,0.276 C 30.012,48.695 25.632,49.169 21.492,48.752 17.334,48.354 13.466,46.876 10.164,44.866 6.856,42.842 4.115,40.221 2.049,37.35 -0.01,34.467 -1.405,31.352 -2.199,28.303 -2.36,27.532 -2.519,26.774 -2.676,26.028 -2.814,25.28 -2.855,24.53 -2.947,23.802 -3.106,22.341 -3.084,20.921 -3.001,19.569 -2.635,14.127 -0.726,9.882 1.043,7.032 L 1.029,7.102 C 0.69,4.816 0.427,3.037 0.244,1.803 0.163,1.225 0.099,0.775 0.052,0.448 0.011,0.145 -0.007,-0.006 0,0 0,0 0.039,0.169 0.096,0.48 0.154,0.812 0.235,1.267 0.339,1.852 0.547,3.067 0.846,4.819 1.232,7.07 1.236,7.094 1.23,7.12 1.218,7.14 c -1.717,2.853 -3.564,7.072 -3.887,12.451 -0.072,1.336 -0.085,2.739 0.082,4.179 0.095,0.718 0.139,1.458 0.28,2.195 0.158,0.734 0.319,1.481 0.482,2.24 0.798,3.001 2.187,6.062 4.225,8.892 2.045,2.819 4.751,5.387 8.009,7.369 3.252,1.966 7.054,3.41 11.136,3.791 4.066,0.402 8.365,-0.069 12.413,-1.595 l 0.765,-0.271 0.737,-0.346 1.476,-0.703 c 0.966,-0.508 1.892,-1.109 2.826,-1.695 1.776,-1.309 3.525,-2.726 4.972,-4.46 2.938,-3.343 5.036,-7.337 5.984,-11.511 0.974,-4.163 0.961,-8.445 0.063,-12.391 C 49.916,11.32 48.065,7.746 45.754,4.768 43.433,1.786 40.602,-0.595 37.594,-2.299 34.574,-3.992 31.398,-5.024 28.342,-5.478 25.28,-5.906 22.355,-5.838 19.72,-5.379 14.419,-4.477 10.418,-2.172 7.74,-0.131 7.694,-0.095 7.628,-0.102 7.591,-0.148 7.561,-0.186 7.563,-0.24 7.591,-0.278 7.594,-0.282 7.6,-0.29 7.6,-0.29 l 0.087,0.169 C 5.229,-0.075 3.324,-0.04 2.008,-0.015 1.371,-0.007 0.878,-0.001 0.52,0.004 0.183,0.007 0,0 0,0"
             style="fill:#1a2e35;fill-opacity:1;fill-rule:nonzero;stroke:none"
             id="path204" />
        </g>
        <g
           id="g206"
           transform="translate(316.1902,438.995)">
          <path
             d="m 0,0 c -1.926,-1.994 -1.87,-5.172 0.125,-7.097 1.994,-1.926 5.172,-1.87 7.097,0.125 1.925,1.994 1.869,5.171 -0.125,7.097 C 5.103,2.05 1.925,1.994 0,0 m -2.494,6.232 c 0.885,0.534 1.826,0.94 2.797,1.216 L 0.88,10.216 5.558,10.298 6.231,7.552 C 7.212,7.31 8.167,6.938 9.07,6.435 l 2.364,1.55 3.366,-3.25 -1.466,-2.417 c 0.535,-0.885 0.94,-1.827 1.216,-2.798 l 2.769,-0.576 0.082,-4.678 -2.747,-0.673 c -0.241,-0.981 -0.613,-1.936 -1.116,-2.839 l 1.549,-2.364 -3.25,-3.366 -2.417,1.465 C 8.536,-14.045 7.594,-14.45 6.623,-14.726 l -0.577,-2.769 -4.678,-0.082 -0.673,2.747 c -0.98,0.241 -1.935,0.613 -2.838,1.116 l -2.365,-1.549 -3.366,3.25 1.466,2.417 c -0.535,0.884 -0.94,1.826 -1.216,2.797 l -2.769,0.576 -0.082,4.679 2.747,0.673 c 0.242,0.98 0.614,1.935 1.117,2.838 l -1.55,2.365 3.25,3.366 z"
             style="fill:#ff735d;fill-opacity:1;fill-rule:nonzero;stroke:none"
             id="path208" />
        </g>
      </g>
    </g>
    <g
       id="g210">
      <g
         id="g212"
         clip-path="url(#clipPath216)">
        <g
           id="g218"
           transform="translate(237.7731,387.7197)">
          <path
             d="m 0,0 -0.734,37.949 c -0.49,9.434 4.592,17.582 14.036,17.811 l 0.874,-0.03 C 22.972,55.43 30.065,48.428 30.473,39.637 30.852,31.458 31.166,22.415 30.962,18.041 30.541,8.986 21.432,7.887 21.432,7.887 21.412,7.886 21.415,2.376 21.439,-0.284 l -0.459,-6.254 -5.594,-1.42 z"
             style="fill:#ffc19d;fill-opacity:1;fill-rule:nonzero;stroke:none"
             id="path220" />
        </g>
        <g
           id="g222"
           transform="translate(259.2029,395.9172)">
          <path
             d="m 0,0 c 0,0 -5.722,-0.14 -11.676,3.89 0,0 2.605,-6.908 11.672,-6.401 z"
             style="fill:#ff9c6a;fill-opacity:1;fill-rule:nonzero;stroke:none"
             id="path224" />
        </g>
        <g
           id="g226"
           transform="translate(265.1569,419.21)">
          <path
             d="m 0,0 c 0.001,-0.684 -0.578,-1.249 -1.292,-1.263 -0.713,-0.013 -1.293,0.528 -1.294,1.212 -0.001,0.684 0.578,1.25 1.291,1.264 C -0.581,1.227 -0.001,0.684 0,0"
             style="fill:#1a2e35;fill-opacity:1;fill-rule:nonzero;stroke:none"
             id="path228" />
        </g>
        <g
           id="g230"
           transform="translate(266.1805,423.7328)">
          <path
             d="m 0,0 c -0.166,-0.163 -1.121,0.596 -2.514,0.64 -1.39,0.063 -2.436,-0.618 -2.581,-0.442 -0.072,0.077 0.102,0.377 0.558,0.685 0.449,0.308 1.206,0.596 2.074,0.563 C -1.596,1.411 -0.878,1.067 -0.47,0.726 -0.053,0.383 0.082,0.073 0,0"
             style="fill:#1a2e35;fill-opacity:1;fill-rule:nonzero;stroke:none"
             id="path232" />
        </g>
        <g
           id="g234"
           transform="translate(253.0099,419.5147)">
          <path
             d="m 0,0 c 0.001,-0.684 -0.578,-1.249 -1.292,-1.263 -0.713,-0.014 -1.293,0.528 -1.294,1.213 0,0.683 0.578,1.249 1.291,1.263 C -0.58,1.227 -0.001,0.684 0,0"
             style="fill:#1a2e35;fill-opacity:1;fill-rule:nonzero;stroke:none"
             id="path236" />
        </g>
        <g
           id="g238"
           transform="translate(252.523,423.8763)">
          <path
             d="m 0,0 c -0.167,-0.163 -1.123,0.595 -2.514,0.639 -1.39,0.064 -2.437,-0.617 -2.582,-0.442 -0.071,0.078 0.101,0.377 0.559,0.686 0.448,0.307 1.206,0.596 2.073,0.563 C -1.597,1.411 -0.878,1.067 -0.47,0.726 -0.054,0.383 0.081,0.072 0,0"
             style="fill:#1a2e35;fill-opacity:1;fill-rule:nonzero;stroke:none"
             id="path240" />
        </g>
        <g
           id="g242"
           transform="translate(257.1516,413.0082)">
          <path
             d="M 0,0 C -0.004,0.08 0.867,0.199 2.275,0.331 2.632,0.355 2.971,0.414 3.039,0.655 3.131,0.909 2.996,1.297 2.838,1.717 2.533,2.589 2.213,3.502 1.879,4.46 0.55,8.364 -0.398,11.569 -0.241,11.621 -0.083,11.673 1.122,8.551 2.45,4.647 2.769,3.685 3.074,2.767 3.364,1.89 3.485,1.481 3.7,1.015 3.501,0.488 3.396,0.226 3.128,0.042 2.899,-0.012 2.668,-0.074 2.468,-0.07 2.292,-0.075 0.878,-0.103 0.003,-0.079 0,0"
             style="fill:#1a2e35;fill-opacity:1;fill-rule:nonzero;stroke:none"
             id="path244" />
        </g>
        <g
           id="g246"
           transform="translate(253.1222,428.2155)">
          <path
             d="m 0,0 c -0.201,-0.349 -1.539,0.071 -3.183,0.162 -1.642,0.125 -3.023,-0.116 -3.177,0.256 -0.067,0.177 0.222,0.488 0.811,0.756 0.583,0.268 1.474,0.463 2.459,0.4 C -2.105,1.508 -1.248,1.197 -0.704,0.855 -0.156,0.512 0.09,0.167 0,0"
             style="fill:#1a2e35;fill-opacity:1;fill-rule:nonzero;stroke:none"
             id="path248" />
        </g>
        <g
           id="g250"
           transform="translate(266.3843,427.8239)">
          <path
             d="m 0,0 c -0.295,-0.311 -1.423,0.039 -2.787,0.081 -1.361,0.082 -2.522,-0.164 -2.781,0.172 -0.113,0.163 0.074,0.476 0.584,0.766 0.503,0.289 1.34,0.517 2.276,0.474 C -1.771,1.451 -0.965,1.148 -0.497,0.815 -0.021,0.481 0.131,0.152 0,0"
             style="fill:#1a2e35;fill-opacity:1;fill-rule:nonzero;stroke:none"
             id="path252" />
        </g>
        <g
           id="g254"
           transform="translate(237.5478,419.246)">
          <path
             d="M 0,0 C -0.152,0.072 -6.162,2.054 -6.175,-4.147 -6.189,-10.347 0.038,-9.082 0.05,-8.904 0.061,-8.726 0,0 0,0"
             style="fill:#ffc19d;fill-opacity:1;fill-rule:nonzero;stroke:none"
             id="path256" />
        </g>
        <g
           id="g258"
           transform="translate(235.7087,412.6953)">
          <path
             d="M 0,0 C -0.027,0.02 -0.108,-0.075 -0.291,-0.159 -0.469,-0.24 -0.775,-0.295 -1.098,-0.173 -1.753,0.068 -2.302,1.11 -2.33,2.227 -2.344,2.791 -2.225,3.328 -2.024,3.773 -1.833,4.226 -1.54,4.542 -1.21,4.6 -0.881,4.675 -0.648,4.477 -0.573,4.303 -0.49,4.129 -0.53,4.006 -0.497,3.995 -0.48,3.979 -0.364,4.098 -0.413,4.354 -0.439,4.478 -0.511,4.624 -0.656,4.743 -0.805,4.865 -1.023,4.927 -1.253,4.903 -1.731,4.871 -2.162,4.432 -2.383,3.944 -2.631,3.454 -2.778,2.85 -2.762,2.217 c 0.037,-1.25 0.674,-2.421 1.57,-2.681 0.436,-0.115 0.8,0.015 0.988,0.161 C -0.011,-0.15 0.022,-0.011 0,0"
             style="fill:#ff9c6a;fill-opacity:1;fill-rule:nonzero;stroke:none"
             id="path260" />
        </g>
        <g
           id="g262"
           transform="translate(280.6985,435.914)">
          <path
             d="m 0,0 c -0.097,0.366 -0.361,0.667 -0.686,0.861 -0.709,0.422 -1.527,0.37 -2.318,0.386 -1.967,0.04 -3.916,0.551 -5.667,1.449 0.613,0.307 1.186,0.682 1.673,1.164 1.006,0.995 1.589,2.524 1.136,3.865 C -5.947,7.976 -6.092,8.24 -6.346,8.32 -6.748,8.445 -7.102,8.051 -7.385,7.738 -8.312,6.71 -9.167,6.271 -10.544,6.416 c -0.855,0.09 -1.683,0.285 -2.354,0.707 -0.027,0.028 -0.051,0.059 -0.077,0.087 -0.322,0.334 -0.635,0.653 -0.944,0.962 0,10e-4 -10e-4,0.002 -0.002,0.003 l 10e-4,-0.002 c -2.323,2.323 -4.322,3.935 -6.384,4.775 -3.022,1.232 -8.082,1.747 -11.242,0.932 -3.16,-0.815 -6.005,-3.364 -6.457,-6.595 -1.764,1.504 -4.422,1.502 -6.581,0.645 l -0.054,0.023 c -2.404,-0.845 -3.779,-3.376 -4.498,-5.821 -0.039,-0.134 -0.073,-0.27 -0.111,-0.404 -0.817,-1.284 -1.925,-2.382 -3.244,-3.142 -0.233,-0.134 -0.499,-0.299 -0.529,-0.566 -0.029,-0.264 0.194,-0.484 0.41,-0.64 0.574,-0.415 1.243,-0.689 1.939,-0.816 -0.222,-0.581 -0.482,-1.145 -0.803,-1.684 -0.273,-0.458 -0.597,-1.006 -0.362,-1.484 0.181,-0.37 0.65,-0.524 1.058,-0.466 0.408,0.058 0.77,0.282 1.12,0.501 -0.271,-0.64 -0.541,-1.28 -0.812,-1.92 0.868,-0.155 1.768,-0.089 2.612,0.163 0.501,-2.292 0.866,-6.534 1.449,-8.088 1.646,-0.036 2.046,0.141 2.876,-0.138 1.071,-0.36 0.654,-2.259 2.053,-1.725 0.713,0.272 1.816,2.963 2.058,3.686 1.599,4.801 2.145,9.949 1.596,14.98 0.999,1.056 2.202,1.917 3.524,2.521 l -0.107,-0.096 c 2.538,0.87 5.41,1.724 7.81,0.523 1.862,-0.931 2.951,-2.871 4.339,-4.422 2.632,-2.939 5.618,-4.515 9.558,-4.701 0.344,-2.739 0.43,-7.216 0.554,-9.77 l 2.202,5.103 0.002,-0.021 c 0.177,0.299 0.324,0.6 0.466,0.902 l 0.048,0.092 v 0.011 c 0.226,0.485 0.441,0.971 0.725,1.45 0.008,-0.007 0.016,-0.014 0.024,-0.021 1.379,-1.227 3.426,0.631 2.341,2.124 -0.215,0.296 -0.473,0.56 -0.768,0.778 0.63,-0.596 1.572,-0.885 2.402,-0.633 0.831,0.251 1.478,1.088 1.409,1.953 -0.047,0.59 -0.466,1.12 -0.998,1.355 1.118,-0.091 2.262,0.148 3.239,0.7 C -0.416,-1.401 0.213,-0.804 0,0"
             style="fill:#1a2e35;fill-opacity:1;fill-rule:nonzero;stroke:none"
             id="path264" />
        </g>
        <g
           id="g266"
           transform="translate(245.5463,442.1448)">
          <path
             d="m 0,0 c 0.018,-0.023 -0.381,-0.238 -0.914,-0.829 -0.527,-0.587 -1.121,-1.611 -1.405,-3.007 -0.146,-0.693 -0.239,-1.469 -0.242,-2.305 -0.007,-0.835 0.056,-1.73 0.116,-2.674 0.057,-0.943 0.12,-1.94 0.056,-2.976 -0.033,-0.517 -0.097,-1.043 -0.212,-1.569 -0.116,-0.516 -0.254,-1.077 -0.646,-1.52 -0.313,-0.361 -0.833,-0.519 -1.283,-0.425 -0.453,0.082 -0.855,0.325 -1.149,0.656 -0.581,0.684 -0.723,1.549 -0.865,2.311 l 0.191,-0.024 c -0.315,-0.683 -0.637,-1.358 -1.112,-1.896 -0.468,-0.542 -1.114,-0.898 -1.77,-0.954 -0.326,-0.028 -0.655,0.025 -0.935,0.168 -0.285,0.14 -0.492,0.378 -0.633,0.629 -0.135,0.255 -0.204,0.535 -0.189,0.805 0.016,0.269 0.123,0.524 0.294,0.704 l 0.096,-0.086 c -0.703,-0.794 -1.443,-1.219 -1.955,-1.454 -0.259,-0.118 -0.465,-0.188 -0.605,-0.232 -0.141,-0.042 -0.215,-0.059 -0.217,-0.053 -0.002,0.006 0.069,0.034 0.205,0.086 0.135,0.055 0.336,0.135 0.587,0.261 0.497,0.252 1.214,0.688 1.887,1.476 l 0.096,-0.086 c -0.306,-0.322 -0.326,-0.89 -0.066,-1.348 0.132,-0.226 0.322,-0.438 0.573,-0.557 0.249,-0.123 0.549,-0.17 0.847,-0.141 0.602,0.057 1.205,0.391 1.643,0.906 0.448,0.514 0.76,1.172 1.071,1.856 l 0.131,0.29 0.059,-0.314 c 0.142,-0.761 0.293,-1.592 0.823,-2.208 0.264,-0.296 0.633,-0.516 1.029,-0.586 0.398,-0.079 0.818,0.05 1.09,0.36 0.343,0.383 0.484,0.913 0.598,1.422 0.112,0.512 0.176,1.028 0.21,1.536 0.066,1.019 0.008,2.009 -0.044,2.951 -0.054,0.943 -0.112,1.843 -0.097,2.689 0.011,0.846 0.114,1.633 0.271,2.335 0.308,1.413 0.935,2.45 1.491,3.03 C -0.414,-0.19 0,0 0,0"
             style="fill:#375a64;fill-opacity:1;fill-rule:nonzero;stroke:none"
             id="path268" />
        </g>
        <g
           id="g270"
           transform="translate(273.5807,433.1969)">
          <path
             d="M 0,0 C 0.002,-0.003 -0.023,-0.024 -0.073,-0.062 -0.134,-0.106 -0.209,-0.16 -0.3,-0.226 -0.4,-0.3 -0.526,-0.386 -0.686,-0.471 -0.843,-0.56 -1.022,-0.669 -1.239,-0.759 c -0.845,-0.397 -2.198,-0.789 -3.887,-0.682 -1.673,0.101 -3.68,0.702 -5.468,2.045 -1.808,1.311 -3.39,3.238 -4.682,5.443 -0.655,1.101 -1.189,2.23 -1.777,3.273 -0.585,1.043 -1.231,2.008 -2.016,2.771 -0.776,0.767 -1.677,1.335 -2.608,1.598 -0.464,0.14 -0.932,0.173 -1.378,0.165 -0.448,-0.022 -0.872,-0.111 -1.264,-0.238 -0.783,-0.259 -1.416,-0.688 -1.897,-1.131 -0.482,-0.446 -0.806,-0.919 -1.029,-1.324 -0.416,-0.832 -0.442,-1.368 -0.474,-1.358 -0.004,0 -10e-4,0.032 0.007,0.095 0.012,0.075 0.027,0.166 0.044,0.278 0.046,0.242 0.152,0.594 0.349,1.023 0.216,0.418 0.536,0.908 1.022,1.373 0.484,0.46 1.126,0.91 1.93,1.187 0.402,0.135 0.839,0.231 1.304,0.258 0.462,0.014 0.953,-0.018 1.433,-0.159 0.967,-0.265 1.9,-0.847 2.697,-1.627 0.808,-0.778 1.469,-1.759 2.061,-2.809 0.596,-1.05 1.129,-2.176 1.779,-3.268 1.282,-2.188 2.842,-4.093 4.615,-5.392 1.755,-1.331 3.714,-1.933 5.362,-2.054 1.661,-0.124 2.998,0.239 3.843,0.608 C -0.422,-0.309 -0.016,0.026 0,0"
             style="fill:#375a64;fill-opacity:1;fill-rule:nonzero;stroke:none"
             id="path272" />
        </g>
        <g
           id="g274"
           transform="translate(274.4233,437.1809)">
          <path
             d="m 0,0 c 0.008,-0.013 -0.109,-0.092 -0.326,-0.225 -0.216,-0.138 -0.546,-0.306 -0.966,-0.486 -0.419,-0.182 -0.939,-0.353 -1.528,-0.494 -0.591,-0.131 -1.252,-0.227 -1.952,-0.251 -0.7,-0.015 -1.366,0.044 -1.964,0.142 -0.595,0.109 -1.124,0.25 -1.553,0.409 -0.429,0.156 -0.768,0.306 -0.991,0.431 -0.224,0.121 -0.345,0.194 -0.338,0.206 0.018,0.036 0.518,-0.224 1.377,-0.495 0.428,-0.139 0.951,-0.262 1.537,-0.358 0.588,-0.085 1.24,-0.138 1.926,-0.122 0.685,0.022 1.334,0.111 1.916,0.229 0.58,0.128 1.095,0.28 1.515,0.443 C -0.505,-0.253 -0.02,0.035 0,0"
             style="fill:#375a64;fill-opacity:1;fill-rule:nonzero;stroke:none"
             id="path276" />
        </g>
        <g
           id="g278"
           transform="translate(257.0517,408.7705)">
          <path
             d="m 0,0 c -0.074,0.224 -1.534,-0.352 -3.064,0.486 -1.532,0.835 -1.985,2.455 -2.193,2.385 -0.1,-0.016 -0.147,-0.458 0.096,-1.122 0.233,-0.652 0.812,-1.51 1.748,-2.023 0.938,-0.51 1.914,-0.502 2.532,-0.314 C -0.249,-0.402 0.048,-0.096 0,0"
             style="fill:#1a2e35;fill-opacity:1;fill-rule:nonzero;stroke:none"
             id="path280" />
        </g>
        <g
           id="g282"
           transform="translate(290.9263,171.5545)">
          <path
             d="m 0,0 3.288,-17.13 c 0,0 19.027,-6.09 19.175,-9.632 l -36.134,-0.657 -2.84,27.315 z"
             style="fill:#1a2e35;fill-opacity:1;fill-rule:nonzero;stroke:none"
             id="path284" />
        </g>
        <g
           id="g286"
           transform="translate(277.2558,144.1351)">
          <path
             d="M 0,0 -0.268,2.557 34.924,2.389 c 0,0 1.196,-0.502 1.401,-1.998 z"
             style="fill:#e1e1e1;fill-opacity:1;fill-rule:nonzero;stroke:none"
             id="path288" />
        </g>
        <g
           id="g290"
           transform="translate(294.8185,154.6014)">
          <path
             d="m 0,0 c -0.01,-0.181 -0.916,-0.245 -1.817,-0.809 -0.916,-0.541 -1.39,-1.315 -1.555,-1.24 -0.166,0.038 0.125,1.114 1.228,1.778 C -1.047,0.402 0.042,0.165 0,0"
             style="fill:#375a64;fill-opacity:1;fill-rule:nonzero;stroke:none"
             id="path292" />
        </g>
        <g
           id="g294"
           transform="translate(298.6714,152.9184)">
          <path
             d="m 0,0 c 0.038,-0.176 -0.751,-0.468 -1.381,-1.221 -0.651,-0.734 -0.822,-1.558 -1.002,-1.547 -0.17,-0.025 -0.275,1.037 0.525,1.958 C -1.066,0.118 -0.001,0.173 0,0"
             style="fill:#375a64;fill-opacity:1;fill-rule:nonzero;stroke:none"
             id="path296" />
        </g>
        <g
           id="g298"
           transform="translate(300.7865,148.226)">
          <path
             d="M 0,0 C -0.165,-0.035 -0.399,0.873 0.085,1.855 0.562,2.84 1.422,3.214 1.496,3.061 1.595,2.911 1.035,2.39 0.651,1.578 0.247,0.776 0.18,0.015 0,0"
             style="fill:#375a64;fill-opacity:1;fill-rule:nonzero;stroke:none"
             id="path300" />
        </g>
        <g
           id="g302"
           transform="translate(293.2898,158.5879)">
          <path
             d="M 0,0 C -0.079,-0.164 -0.904,0.102 -1.927,0.053 -2.952,0.024 -3.754,-0.303 -3.845,-0.146 -3.947,-0.014 -3.158,0.641 -1.951,0.682 -0.746,0.732 0.092,0.14 0,0"
             style="fill:#1a2e35;fill-opacity:1;fill-rule:nonzero;stroke:none"
             id="path304" />
        </g>
        <g
           id="g306"
           transform="translate(202.9891,175.661)">
          <path
             d="m 0,0 -15.094,-10.472 c 0,0 10.741,-16.845 8.59,-19.664 l -28.911,23.166 23.016,19.057 z"
             style="fill:#1a2e35;fill-opacity:1;fill-rule:nonzero;stroke:none"
             id="path308" />
        </g>
        <g
           id="g310"
           transform="translate(167.5737,168.6912)">
          <path
             d="m 0,0 2.345,1.942 26.744,-23.004 c 0,0 0.599,-1.15 -0.2,-2.432 z"
             style="fill:#e1e1e1;fill-opacity:1;fill-rule:nonzero;stroke:none"
             id="path312" />
        </g>
        <g
           id="g314"
           transform="translate(188.4728,164.9381)">
          <path
             d="m 0,0 c -0.123,-0.133 -0.861,0.397 -1.914,0.539 -1.05,0.17 -1.91,-0.123 -1.989,0.04 -0.103,0.136 0.808,0.778 2.081,0.583 C -0.548,0.979 0.138,0.1 0,0"
             style="fill:#375a64;fill-opacity:1;fill-rule:nonzero;stroke:none"
             id="path316" />
        </g>
        <g
           id="g318"
           transform="translate(190.3604,161.1813)">
          <path
             d="m 0,0 c -0.083,-0.16 -0.877,0.12 -1.842,-0.057 -0.971,-0.148 -1.629,-0.673 -1.76,-0.549 -0.147,0.09 0.451,0.973 1.655,1.17 C -0.745,0.772 0.11,0.133 0,0"
             style="fill:#375a64;fill-opacity:1;fill-rule:nonzero;stroke:none"
             id="path320" />
        </g>
        <g
           id="g322"
           transform="translate(188.9877,156.2206)">
          <path
             d="M 0,0 C -0.149,0.078 0.251,0.926 1.251,1.372 2.247,1.825 3.148,1.562 3.107,1.398 3.087,1.219 2.324,1.176 1.509,0.798 0.686,0.439 0.148,-0.104 0,0"
             style="fill:#375a64;fill-opacity:1;fill-rule:nonzero;stroke:none"
             id="path324" />
        </g>
        <g
           id="g326"
           transform="translate(191.0817,168.4541)">
          <path
             d="M 0,0 C -0.165,-0.075 -0.63,0.656 -1.449,1.273 -2.255,1.905 -3.081,2.166 -3.051,2.345 -3.044,2.512 -2.019,2.511 -1.065,1.772 -0.105,1.04 0.16,0.049 0,0"
             style="fill:#1a2e35;fill-opacity:1;fill-rule:nonzero;stroke:none"
             id="path328" />
        </g>
        <g
           id="g330"
           transform="translate(212.6216,364.8543)">
          <path
             d="m 0,0 c 0,0 -18.413,-12.043 -19.274,-20.025 -0.86,-7.982 -3.834,-24.997 -0.729,-35.376 3.106,-10.379 6.079,-22.395 14.605,-22.6 8.525,-0.204 14.065,3.751 14.065,3.751 L 18.942,-42.961 15.596,-7.79 14.399,4.857 Z"
             style="fill:#1a2e35;fill-opacity:1;fill-rule:nonzero;stroke:none"
             id="path332" />
        </g>
        <g
           id="g334"
           transform="translate(214.152,287.6068)">
          <path
             d="m 0,0 c -0.006,-0.003 -0.04,0.05 -0.099,0.156 -0.067,0.129 -0.15,0.285 -0.251,0.478 -0.215,0.422 -0.526,1.048 -0.911,1.862 -0.773,1.627 -1.857,3.997 -3.098,6.969 -1.239,2.972 -2.642,6.544 -3.98,10.591 -1.313,4.046 -2.655,8.566 -3.262,13.466 -0.61,4.895 -0.613,9.596 -0.513,13.852 0.111,4.259 0.371,8.086 0.641,11.295 0.272,3.208 0.565,5.797 0.786,7.584 0.117,0.866 0.209,1.552 0.276,2.055 0.035,0.214 0.063,0.389 0.087,0.532 0.022,0.12 0.036,0.18 0.043,0.18 0.007,-10e-4 0.006,-0.064 -0.003,-0.185 -0.013,-0.145 -0.028,-0.321 -0.047,-0.537 -0.049,-0.504 -0.117,-1.193 -0.202,-2.062 -0.174,-1.791 -0.424,-4.382 -0.66,-7.59 -0.234,-3.207 -0.464,-7.031 -0.554,-11.281 -0.08,-4.246 -0.065,-8.934 0.541,-13.793 0.601,-4.858 1.925,-9.362 3.216,-13.403 1.314,-4.04 2.687,-7.616 3.891,-10.597 1.206,-2.981 2.25,-5.366 2.978,-7.011 0.356,-0.798 0.637,-1.43 0.844,-1.893 C -0.191,0.469 -0.12,0.307 -0.062,0.174 -0.015,0.062 0.006,0.003 0,0"
             style="fill:#375a64;fill-opacity:1;fill-rule:nonzero;stroke:none"
             id="path336" />
        </g>
        <g
           id="g338"
           transform="translate(203.0721,318.7766)">
          <path
             d="m 0,0 c 0.024,-0.053 -0.625,-0.401 -1.668,-0.969 -1.042,-0.567 -2.473,-1.365 -4.015,-2.311 -1.542,-0.948 -2.901,-1.862 -3.879,-2.536 -0.978,-0.673 -1.582,-1.094 -1.618,-1.049 -0.032,0.041 0.512,0.541 1.452,1.276 0.94,0.735 2.284,1.694 3.837,2.648 1.553,0.952 3.016,1.718 4.096,2.223 C -0.714,-0.211 -0.022,0.047 0,0"
             style="fill:#375a64;fill-opacity:1;fill-rule:nonzero;stroke:none"
             id="path340" />
        </g>
        <g
           id="g342"
           transform="translate(220.6495,295.152)">
          <path
             d="m 0,0 c 0,0 -0.213,-1.909 0.196,-4.136 0.774,-4.209 0.06,-11.037 3.647,-16.249 5.484,-7.971 14.783,-17.693 14.783,-17.693 L 36.838,-82.52 53.01,-140.526 75.242,-137.237 63.731,-66.332 45.266,0.32 Z"
             style="fill:#1a2e35;fill-opacity:1;fill-rule:nonzero;stroke:none"
             id="path344" />
        </g>
        <g
           id="g346"
           transform="translate(177.0382,180.8872)">
          <path
             d="m 0,0 39.461,50.439 7.854,46.97 30.371,-13.968 -9.697,-41.6 C 66.793,36.709 64.101,32.048 60.255,28.446 L 17.14,-16.587 Z"
             style="fill:#1a2e35;fill-opacity:1;fill-rule:nonzero;stroke:none"
             id="path348" />
        </g>
        <g
           id="g350"
           transform="translate(252.3369,225.2631)">
          <path
             d="m 0,0 c -0.006,-0.003 -0.043,0.061 -0.108,0.189 -0.072,0.149 -0.164,0.338 -0.279,0.572 -0.235,0.508 -0.606,1.247 -1.025,2.225 -0.863,1.945 -2.004,4.806 -3.278,8.39 -1.293,3.575 -2.653,7.897 -4.5,12.56 -1.839,4.641 -4.353,9.669 -8.477,13.751 -2,2.094 -4.038,4.063 -5.873,6.107 -0.46,0.509 -0.899,1.033 -1.315,1.569 -0.394,0.547 -0.783,1.089 -1.168,1.625 -0.4,0.527 -0.724,1.097 -1.078,1.637 -0.173,0.273 -0.345,0.545 -0.516,0.814 -0.155,0.28 -0.309,0.559 -0.461,0.835 -1.232,2.203 -2.159,4.443 -2.707,6.628 -0.541,2.188 -0.702,4.298 -0.635,6.205 0.007,0.958 0.142,1.859 0.23,2.714 0.162,0.845 0.26,1.652 0.458,2.384 0.171,0.737 0.336,1.422 0.532,2.041 0.18,0.622 0.348,1.19 0.53,1.69 0.335,1.011 0.632,1.781 0.842,2.301 0.098,0.242 0.177,0.436 0.239,0.59 0.056,0.132 0.088,0.199 0.095,0.196 0.006,-0.002 -0.013,-0.074 -0.057,-0.211 -0.052,-0.157 -0.119,-0.356 -0.201,-0.603 -0.186,-0.528 -0.46,-1.306 -0.771,-2.32 -0.17,-0.503 -0.327,-1.072 -0.495,-1.695 -0.184,-0.618 -0.337,-1.302 -0.497,-2.037 -0.187,-0.73 -0.274,-1.532 -0.424,-2.37 -0.078,-0.849 -0.202,-1.742 -0.2,-2.688 -0.048,-1.886 0.127,-3.963 0.673,-6.116 0.555,-2.15 1.48,-4.355 2.708,-6.53 0.152,-0.273 0.305,-0.548 0.459,-0.824 0.17,-0.267 0.341,-0.535 0.514,-0.805 0.353,-0.534 0.675,-1.097 1.073,-1.619 0.384,-0.531 0.772,-1.067 1.163,-1.609 0.408,-0.523 0.842,-1.038 1.299,-1.542 1.824,-2.024 3.864,-3.992 5.871,-6.092 4.167,-4.124 6.706,-9.229 8.529,-13.89 1.837,-4.69 3.168,-9.02 4.426,-12.603 1.238,-3.591 2.337,-6.462 3.154,-8.422 0.397,-0.986 0.745,-1.734 0.956,-2.252 0.1,-0.242 0.18,-0.435 0.243,-0.589 C -0.018,0.073 0.006,0.003 0,0"
             style="fill:#375a64;fill-opacity:1;fill-rule:nonzero;stroke:none"
             id="path352" />
        </g>
        <g
           id="g354"
           transform="translate(259.6976,383.4225)">
          <path
             d="m 0,0 6.969,-8.301 c 0,0 17.835,-38.678 17.714,-43.413 -0.121,-4.736 -10.725,-10.29 -10.725,-10.29 z"
             style="fill:#ff735d;fill-opacity:1;fill-rule:nonzero;stroke:none"
             id="path356" />
        </g>
        <g
           id="g358"
           transform="translate(236.7692,398.4769)">
          <path
             d="m 0,0 -0.01,2.205 22.453,-12.796 0.485,-4.463 8.396,-22.666 3.946,-60.471 -3.936,-8.844 -17.796,-4.596 -5.976,96.169 z"
             style="fill:#fafafa;fill-opacity:1;fill-rule:nonzero;stroke:none"
             id="path360" />
        </g>
        <g
           id="g362"
           transform="translate(233.7287,394.4038)">
          <path
             d="m 0,0 -9.169,-5.194 -1.672,-48.612 1.78,-20.851 -6.695,-34.194 0.227,-4.79 52.399,0.194 0.488,18.424 c 0,0 0.48,9.173 0.512,11.785 0.095,7.616 -2.822,28.454 -4.242,39.483 -1.927,14.959 -11.716,31.96 -11.716,31.96 L 2.041,4.913 Z"
             style="fill:#ff735d;fill-opacity:1;fill-rule:nonzero;stroke:none"
             id="path364" />
        </g>
        <g
           id="g366"
           transform="translate(268.1017,333.5827)">
          <path
             d="m 0,0 c -0.006,-0.003 -0.038,0.054 -0.093,0.167 -0.063,0.136 -0.14,0.303 -0.235,0.507 -0.212,0.479 -0.502,1.135 -0.87,1.965 -0.752,1.744 -1.818,4.215 -3.13,7.254 -2.618,6.167 -6.214,14.636 -10.187,23.991 -0.783,1.858 -1.552,3.681 -2.298,5.452 l -0.024,0.057 0.013,0.059 c 0.287,1.384 0.567,2.738 0.84,4.055 l 0.222,-0.227 c -0.894,-0.165 -1.769,-0.327 -2.626,-0.485 l -0.097,-0.018 -0.069,0.068 c -4.983,4.967 -9.249,9.219 -12.296,12.257 -1.484,1.498 -2.67,2.696 -3.51,3.545 -0.387,0.4 -0.693,0.717 -0.924,0.955 -0.207,0.219 -0.311,0.337 -0.304,0.345 0.008,0.007 0.127,-0.095 0.348,-0.3 0.241,-0.228 0.562,-0.531 0.966,-0.913 0.858,-0.83 2.07,-2.002 3.585,-3.469 3.073,-3.012 7.374,-7.229 12.398,-12.154 l -0.166,0.05 c 0.857,0.162 1.732,0.327 2.625,0.496 l 0.28,0.053 -0.057,-0.28 c -0.27,-1.318 -0.547,-2.672 -0.831,-4.057 l -0.011,0.116 c 0.748,-1.77 1.518,-3.593 2.303,-5.45 3.93,-9.373 7.488,-17.858 10.08,-24.036 C -2.806,6.942 -1.78,4.455 -1.055,2.699 -0.717,1.857 -0.449,1.191 -0.254,0.706 -0.174,0.495 -0.108,0.323 -0.055,0.183 -0.012,0.065 0.006,0.003 0,0"
             style="fill:#1a2e35;fill-opacity:1;fill-rule:nonzero;stroke:none"
             id="path368" />
        </g>
        <g
           id="g370">
          <g
             id="g372" />
          <g
             id="g384">
            <g
               clip-path="url(#clipPath376)"
               opacity="0.300003"
               id="g382">
              <g
                 transform="translate(223.32,312.8614)"
                 id="g380">
                <path
                   d="m 0,0 21.467,-1.071 c 0,0 12.066,-9.022 16.633,-9.095 4.313,-0.069 6.682,2.254 6.682,2.254 l 3.499,4.976 v 3.17 L 34.923,-0.698 27.845,2.163 0.246,2.712 Z"
                   style="fill:#000000;fill-opacity:1;fill-rule:nonzero;stroke:none"
                   id="path378" />
              </g>
            </g>
          </g>
        </g>
        <g
           id="g386"
           transform="translate(254.7184,367.3246)">
          <path
             d="m 0,0 -23.935,-38.48 c -1.604,-2.579 -0.797,-5.913 1.822,-7.528 L 4.48,-62.401 c 2.647,-1.632 6.168,-0.908 7.909,1.627 l 25.267,36.801 c 1.75,2.548 1.045,5.973 -1.577,7.671 L 8.153,1.77 C 5.419,3.539 1.699,2.731 0,0"
             style="fill:#e1e1e1;fill-opacity:1;fill-rule:nonzero;stroke:none"
             id="path388" />
        </g>
        <g
           id="g390"
           transform="translate(264.8301,339.1951)">
          <path
             d="m 0,0 c 0,-2.165 -1.755,-3.921 -3.921,-3.921 -2.165,0 -3.92,1.756 -3.92,3.921 0,2.165 1.755,3.921 3.92,3.921 C -1.755,3.921 0,2.165 0,0"
             style="fill:#ffffff;fill-opacity:1;fill-rule:nonzero;stroke:none"
             id="path392" />
        </g>
        <g
           id="g394">
          <g
             id="g396" />
          <g
             id="g408">
            <g
               clip-path="url(#clipPath400)"
               opacity="0.300003"
               id="g406">
              <g
                 transform="translate(245.6718,377.3925)"
                 id="g404">
                <path
                   d="m 0,0 2.003,-2.913 2.633,0.819 -1.267,-2.458 3.333,-9.284 1.835,2.948 -2.739,6.491 0.835,4.056 -2.626,-0.491 -4.308,4.259 z"
                   style="fill:#000000;fill-opacity:1;fill-rule:nonzero;stroke:none"
                   id="path402" />
              </g>
            </g>
          </g>
        </g>
        <g
           id="g410">
          <g
             id="g412" />
          <g
             id="g424">
            <g
               clip-path="url(#clipPath416)"
               opacity="0.300003"
               id="g422">
              <g
                 transform="translate(237.478,337.5109)"
                 id="g420">
                <path
                   d="m 0,0 24.17,-3.928 5.903,-0.556 9.381,6.812 -0.621,-3.271 -4.71,-5.378 -3.499,-7.318 -1.027,-4.042 -26.633,1.588 -4.518,3.169 z"
                   style="fill:#000000;fill-opacity:1;fill-rule:nonzero;stroke:none"
                   id="path418" />
              </g>
            </g>
          </g>
        </g>
        <g
           id="g426"
           transform="translate(224.0846,388.9292)">
          <path
             d="m 0,0 c 0,0 3.114,3.035 4.88,4.145 2.581,1.621 5.586,1.405 6.831,0.911 1.245,-0.493 7.518,-2.326 9.875,-14.573 1.456,-7.566 -8.808,-44.138 -8.808,-44.138 l -7.54,1.072 c 0,0 7.034,28.6 7.688,34.59 C 13.58,-12.003 15.681,3.093 0,0"
             style="fill:#1a2e35;fill-opacity:1;fill-rule:nonzero;stroke:none"
             id="path428" />
        </g>
        <g
           id="g430"
           transform="translate(228.8182,391.7087)">
          <path
             d="m 0,0 c 0.005,-0.11 -0.41,-0.243 -0.926,-0.297 -0.516,-0.054 -0.951,-0.009 -0.972,0.098 -0.021,0.108 0.393,0.241 0.926,0.297 C -0.44,0.154 -0.005,0.11 0,0"
             style="fill:#375a64;fill-opacity:1;fill-rule:nonzero;stroke:none"
             id="path432" />
        </g>
        <g
           id="g434"
           transform="translate(236.013,390.4791)">
          <path
             d="M 0,0 C -0.054,-0.099 -0.809,0.209 -1.769,0.488 -2.728,0.774 -3.529,0.961 -3.513,1.075 -3.501,1.179 -2.654,1.166 -1.656,0.87 -0.655,0.578 0.054,0.093 0,0"
             style="fill:#375a64;fill-opacity:1;fill-rule:nonzero;stroke:none"
             id="path436" />
        </g>
        <g
           id="g438"
           transform="translate(240.4507,384.7979)">
          <path
             d="M 0,0 C -0.104,-0.04 -0.482,0.69 -0.947,1.586 -1.409,2.485 -1.776,3.218 -1.686,3.279 -1.594,3.341 -1.064,2.684 -0.593,1.768 -0.118,0.853 0.102,0.038 0,0"
             style="fill:#375a64;fill-opacity:1;fill-rule:nonzero;stroke:none"
             id="path440" />
        </g>
        <g
           id="g442"
           transform="translate(241.5614,377.5596)">
          <path
             d="M 0,0 C -0.113,0.008 -0.132,0.833 -0.165,1.84 -0.195,2.846 -0.243,3.666 -0.132,3.685 -0.026,3.704 0.202,2.888 0.232,1.852 0.266,0.818 0.106,-0.009 0,0"
             style="fill:#375a64;fill-opacity:1;fill-rule:nonzero;stroke:none"
             id="path444" />
        </g>
        <g
           id="g446"
           transform="translate(240.3494,370.2895)">
          <path
             d="M 0,0 C -0.107,0.026 -0.021,0.85 0.191,1.84 0.403,2.831 0.665,3.621 0.771,3.606 0.882,3.59 0.795,2.767 0.581,1.765 0.367,0.764 0.107,-0.026 0,0"
             style="fill:#375a64;fill-opacity:1;fill-rule:nonzero;stroke:none"
             id="path448" />
        </g>
        <g
           id="g450"
           transform="translate(238.5835,363.1269)">
          <path
             d="M 0,0 C -0.106,0.027 0.008,0.85 0.255,1.837 0.503,2.825 0.79,3.604 0.896,3.578 1.003,3.552 0.889,2.729 0.641,1.741 0.394,0.752 0.106,-0.027 0,0"
             style="fill:#375a64;fill-opacity:1;fill-rule:nonzero;stroke:none"
             id="path452" />
        </g>
        <g
           id="g454"
           transform="translate(236.7497,355.975)">
          <path
             d="M 0,0 C -0.106,0.027 0.014,0.85 0.268,1.837 0.523,2.824 0.815,3.602 0.922,3.574 1.028,3.547 0.908,2.725 0.653,1.738 0.399,0.751 0.106,-0.027 0,0"
             style="fill:#375a64;fill-opacity:1;fill-rule:nonzero;stroke:none"
             id="path456" />
        </g>
        <g
           id="g458"
           transform="translate(234.8866,348.8324)">
          <path
             d="M 0,0 C -0.106,0.028 0.017,0.85 0.275,1.836 0.533,2.822 0.828,3.599 0.934,3.571 1.041,3.543 0.918,2.721 0.66,1.735 0.401,0.749 0.106,-0.028 0,0"
             style="fill:#375a64;fill-opacity:1;fill-rule:nonzero;stroke:none"
             id="path460" />
        </g>
        <g
           id="g462"
           transform="translate(233.0038,341.6932)">
          <path
             d="M 0,0 C -0.106,0.028 0.019,0.85 0.279,1.835 0.54,2.82 0.837,3.596 0.943,3.568 1.049,3.54 0.924,2.719 0.664,1.733 0.403,0.748 0.106,-0.028 0,0"
             style="fill:#375a64;fill-opacity:1;fill-rule:nonzero;stroke:none"
             id="path464" />
        </g>
        <g
           id="g466"
           transform="translate(231.5641,336.2796)">
          <path
             d="M 0,0 C -0.106,0.028 -0.082,0.464 0.053,0.972 0.189,1.481 0.385,1.87 0.491,1.842 0.597,1.813 0.573,1.378 0.438,0.87 0.302,0.361 0.106,-0.028 0,0"
             style="fill:#375a64;fill-opacity:1;fill-rule:nonzero;stroke:none"
             id="path468" />
        </g>
        <g
           id="g470"
           transform="translate(233.4298,301.3576)">
          <path
             d="m 0,0 c 0.006,-0.011 -0.068,-0.159 -0.217,-0.435 -0.167,-0.303 -0.385,-0.699 -0.657,-1.193 -0.6,-1.06 -1.439,-2.541 -2.484,-4.387 l -0.109,0.194 c 5.103,-0.071 12.828,-0.215 21.45,-0.407 0.79,-0.018 1.572,-0.035 2.344,-0.053 l -0.202,-0.213 c -0.164,2.137 -0.322,4.198 -0.471,6.136 L 19.84,-0.533 C 14.121,-0.402 9.191,-0.289 5.641,-0.208 3.908,-0.155 2.514,-0.113 1.508,-0.082 1.052,-0.063 0.684,-0.047 0.395,-0.035 0.141,-0.021 0.005,-0.01 0,0 -0.005,0.01 0.119,0.017 0.364,0.022 0.645,0.024 1.005,0.027 1.45,0.031 2.449,0.027 3.834,0.021 5.556,0.014 c 3.573,-0.042 8.535,-0.1 14.291,-0.168 l 0.172,-0.002 0.014,-0.173 c 0.154,-1.937 0.317,-3.998 0.487,-6.134 l 0.017,-0.219 -0.219,0.005 c -0.772,0.017 -1.554,0.034 -2.343,0.052 -8.623,0.191 -16.347,0.39 -21.448,0.546 l -0.221,0.007 0.113,0.187 c 1.103,1.838 1.988,3.314 2.622,4.368 0.292,0.474 0.525,0.853 0.705,1.144 C -0.092,-0.117 -0.006,0.011 0,0"
             style="fill:#1a2e35;fill-opacity:1;fill-rule:nonzero;stroke:none"
             id="path472" />
        </g>
        <g
           id="g474"
           transform="translate(277.4504,340.9095)">
          <path
             d="m 0,0 c 0.229,0.398 0.815,0.437 1.105,0.08 0.684,-0.846 1.442,-2.53 0.291,-4.934 -1.236,-2.582 -2.91,-3.815 -2.91,-3.815 l 6.899,-3.539 c 0,0 2.262,-1.674 1.312,-3.07 -0.95,-1.396 -1.258,-1.152 -1.258,-1.152 0,0 1.623,-0.769 0.773,-2.565 -0.489,-1.033 -2.04,-1.323 -2.04,-1.323 0,0 -0.302,-1.985 -0.731,-2.279 -0.429,-0.294 -2.426,-0.382 -2.426,-0.382 0,0 -0.108,-1.315 -1.061,-1.596 -0.954,-0.282 -5.174,0.256 -5.174,0.256 0,0 -4.702,1.538 -6.469,2.187 l -2.831,0.26 1.023,11.488 c 0,0 2.4,-10e-4 2.941,0.287 1.149,0.613 5.626,4.379 5.626,4.379 0,0 2.512,1.449 3.48,2.924 C -0.709,-1.665 -0.363,-0.63 0,0"
             style="fill:#ffc19d;fill-opacity:1;fill-rule:nonzero;stroke:none"
             id="path476" />
        </g>
        <g
           id="g478"
           transform="translate(278.6981,326.1793)">
          <path
             d="M 0,0 C -0.017,-0.044 0.93,-0.435 2.116,-0.874 3.302,-1.312 4.278,-1.632 4.296,-1.588 4.313,-1.545 3.366,-1.154 2.18,-0.715 0.993,-0.276 0.018,0.044 0,0"
             style="fill:#ff9c6a;fill-opacity:1;fill-rule:nonzero;stroke:none"
             id="path480" />
        </g>
        <g
           id="g482"
           transform="translate(276.3115,322.1943)">
          <path
             d="M 0,0 C -0.008,-0.022 0.279,-0.144 0.752,-0.315 1.226,-0.487 1.888,-0.705 2.627,-0.92 3.366,-1.134 4.043,-1.304 4.536,-1.413 5.03,-1.522 5.339,-1.573 5.345,-1.551 5.351,-1.528 5.053,-1.436 4.569,-1.297 4.022,-1.141 3.384,-0.959 2.678,-0.757 1.975,-0.55 1.338,-0.362 0.793,-0.201 0.31,-0.06 0.008,0.023 0,0"
             style="fill:#ff9c6a;fill-opacity:1;fill-rule:nonzero;stroke:none"
             id="path484" />
        </g>
        <g
           id="g486"
           transform="translate(275.432,318.495)">
          <path
             d="M 0,0 C -0.008,-0.046 0.656,-0.193 1.485,-0.327 2.313,-0.461 2.991,-0.533 2.999,-0.487 3.008,-0.44 2.343,-0.294 1.514,-0.159 0.686,-0.025 0.008,0.046 0,0"
             style="fill:#ff9c6a;fill-opacity:1;fill-rule:nonzero;stroke:none"
             id="path488" />
        </g>
        <g
           id="g490"
           transform="translate(259.6659,331.8577)">
          <path
             d="m 0,0 4.363,-0.46 -0.328,-13.689 -4.889,0.478 z"
             style="fill:#f5f5f5;fill-opacity:1;fill-rule:nonzero;stroke:none"
             id="path492" />
        </g>
        <g
           id="g494"
           transform="translate(259.6659,331.8577)">
          <path
             d="m 0,0 c 0.015,-0.018 0.007,-0.397 -0.019,-1.076 -0.032,-0.732 -0.074,-1.698 -0.126,-2.879 -0.114,-2.44 -0.284,-5.829 -0.517,-9.728 l -0.173,0.204 c 1.459,-0.141 3.017,-0.292 4.625,-0.446 0.089,-0.009 0.178,-0.018 0.264,-0.026 l -0.218,-0.193 c 0.133,5.517 0.278,10.44 0.398,13.687 l 0.115,-0.13 C 3.042,-0.42 1.981,-0.284 1.185,-0.182 0.435,-0.08 0.016,-0.018 0,0 -0.016,0.018 0.373,-0.005 1.119,-0.06 1.938,-0.129 3.031,-0.22 4.376,-0.332 L 4.492,-0.342 4.491,-0.463 C 4.456,-3.712 4.365,-8.637 4.233,-14.154 l -0.005,-0.214 -0.213,0.021 c -0.085,0.008 -0.175,0.017 -0.264,0.026 -1.607,0.159 -3.165,0.314 -4.623,0.459 l -0.186,0.018 0.012,0.185 c 0.259,3.981 0.517,7.427 0.706,9.852 0.095,1.16 0.172,2.108 0.231,2.827 C -0.052,-0.327 -0.015,0.018 0,0"
             style="fill:#1a2e35;fill-opacity:1;fill-rule:nonzero;stroke:none"
             id="path496" />
        </g>
        <g
           id="g498"
           transform="translate(226.1474,390.0334)">
          <path
             d="m 0,0 c 0,0 -8.341,-3.169 -10.527,-13.755 -2.185,-10.586 -12.216,-46.384 -10.172,-52.839 2.043,-6.455 8.979,-7.264 23.071,-8.233 14.092,-0.969 29.972,-1.924 29.972,-1.924 l 1.251,18.991 -30.208,4.295 c 0,0 8.794,31.343 9.443,35.878 C 13.479,-13.052 14.965,3.352 0,0"
             style="fill:#ff735d;fill-opacity:1;fill-rule:nonzero;stroke:none"
             id="path500" />
        </g>
        <g
           id="g502"
           transform="translate(205.4481,323.4393)">
          <path
             d="m 0,0 c 0.007,0.002 0.048,-0.087 0.122,-0.262 0.08,-0.194 0.186,-0.452 0.321,-0.78 0.168,-0.328 0.389,-0.732 0.676,-1.187 0.165,-0.215 0.342,-0.445 0.53,-0.691 0.193,-0.243 0.452,-0.455 0.695,-0.705 1.032,-0.948 2.571,-1.785 4.482,-2.367 1.91,-0.592 4.169,-0.977 6.677,-1.273 5.021,-0.579 11.052,-0.878 17.745,-1.31 C 37.944,-9 45.31,-9.467 53.055,-9.958 l -0.21,-0.185 c 0.022,0.331 0.046,0.69 0.069,1.05 0.418,6.287 0.819,12.337 1.192,17.939 l 0.161,-0.199 c -12.72,1.845 -23.372,3.389 -30.195,4.379 l 0.065,0.012 C 21.733,11.732 19.85,10.709 18.546,10.001 17.917,9.666 17.428,9.406 17.078,9.219 16.922,9.14 16.799,9.077 16.699,9.026 16.614,8.984 16.569,8.965 16.567,8.969 16.565,8.973 16.605,9 16.686,9.051 c 0.096,0.057 0.214,0.128 0.365,0.218 0.344,0.197 0.824,0.473 1.442,0.828 1.292,0.728 3.159,1.78 5.543,3.123 l 0.03,0.017 0.035,-0.005 C 30.93,12.28 41.59,10.795 54.32,9.021 L 54.494,8.997 54.482,8.822 C 54.117,3.218 53.722,-2.831 53.311,-9.119 53.288,-9.479 53.264,-9.838 53.242,-10.17 l -0.013,-0.198 -0.198,0.013 c -7.745,0.503 -15.111,0.981 -21.807,1.416 -6.692,0.453 -12.719,0.78 -17.755,1.397 -2.514,0.316 -4.784,0.722 -6.709,1.34 -1.926,0.608 -3.485,1.48 -4.52,2.464 -0.244,0.26 -0.503,0.48 -0.694,0.731 -0.187,0.254 -0.361,0.492 -0.524,0.713 -0.281,0.468 -0.494,0.883 -0.651,1.22 -0.12,0.336 -0.215,0.6 -0.286,0.798 C 0.022,-0.095 -0.007,-0.002 0,0"
             style="fill:#1a2e35;fill-opacity:1;fill-rule:nonzero;stroke:none"
             id="path504" />
        </g>
      </g>
    </g>
    <g
       id="g506">
      <g
         id="g508"
         clip-path="url(#clipPath512)">
        <g
           id="g514"
           transform="translate(114.6022,87.1448)">
          <path
             d="m 0,0 17.655,27.315 c 4.51,12.058 9.426,23.923 12.854,28.611 6.772,9.264 21.314,19.16 44.097,17.402 6.235,-0.481 14.103,-2.891 20.151,-4.48 8.533,-2.243 12.407,-2.839 22.519,-3.16 18.284,-0.58 62.308,5.522 63.334,-15.194 1.027,-20.715 -30.9,-18.4 -40.643,-17.987 -9.742,0.412 -28.428,1.6 -35.711,-0.592 -7.283,-2.193 -30.018,-2.807 -30.018,-2.807 l -20.94,-70.005 z"
             style="fill:#ffc19d;fill-opacity:1;fill-rule:nonzero;stroke:none"
             id="path516" />
        </g>
        <g
           id="g518"
           transform="translate(174.1617,55.0676)">
          <path
             d="m 0,0 19.222,28.194 c 15.267,2.665 46.384,8.215 69.992,11.709 16.179,2.394 34.963,5.094 44.932,6.52 4.622,0.661 8.944,2.642 12.464,5.708 l 61.118,53.221 c 0,0 -2.161,15.164 -21.075,10.089 0,0 -11.379,9.16 -30.932,-4.197 L 128.972,89.959 85.975,91.84 -1.902,82.975 -35.213,25.539 Z"
             style="fill:#ffc19d;fill-opacity:1;fill-rule:nonzero;stroke:none"
             id="path520" />
        </g>
        <g
           id="g522"
           transform="translate(277.3156,102.1644)">
          <path
             d="m 0,0 c -0.004,0.012 0.193,0.088 0.576,0.223 0.416,0.142 0.98,0.335 1.699,0.581 1.526,0.504 3.703,1.224 6.45,2.132 5.589,1.812 13.493,4.375 22.899,7.426 L 31.537,10.311 C 37.576,15.96 44.6,22.432 52.108,29.225 66.75,42.477 80.023,53.985 88.533,60.968 l -0.049,-0.172 c -1.302,3.87 -3.844,6.156 -5.626,7.361 -0.912,0.613 -1.678,0.977 -2.194,1.219 -0.243,0.104 -0.439,0.187 -0.596,0.254 -0.133,0.059 -0.2,0.092 -0.198,0.099 0,0 1.191,-0.249 3.081,-1.429 0.932,-0.6 2.026,-1.447 3.085,-2.659 1.053,-1.208 2.08,-2.785 2.75,-4.745 l 0.035,-0.102 -0.084,-0.07 C 80.311,53.65 67.096,42.088 52.458,28.839 44.952,22.047 37.915,15.592 31.852,9.972 L 31.814,9.936 31.765,9.921 C 22.335,6.944 14.412,4.443 8.809,2.674 6.044,1.819 3.854,1.141 2.319,0.666 1.591,0.449 1.02,0.278 0.599,0.153 0.208,0.04 0.004,-0.012 0,0"
             style="fill:#ff9c6a;fill-opacity:1;fill-rule:nonzero;stroke:none"
             id="path524" />
        </g>
        <g
           id="g526"
           transform="translate(210.1532,118.5875)">
          <path
             d="m 0,0 c -0.001,0.009 0.089,0.028 0.264,0.056 0.205,0.029 0.462,0.066 0.779,0.111 0.726,0.094 1.729,0.224 3.001,0.389 2.645,0.357 6.402,0.865 11.028,1.491 4.656,0.628 10.204,1.388 16.4,1.942 6.189,0.548 13.057,0.85 20.223,0.348 3.578,-0.198 7.071,-0.369 10.437,-0.243 3.361,0.122 6.6,0.548 9.546,1.456 2.943,0.9 5.605,2.234 7.722,3.962 2.11,1.727 3.652,3.861 4.379,6.054 0.715,2.209 0.684,4.375 0.31,6.174 -0.401,1.803 -1.156,3.242 -1.927,4.284 -1.568,2.108 -3.018,2.679 -2.94,2.764 0.004,0.008 0.085,-0.035 0.237,-0.125 0.178,-0.11 0.399,-0.246 0.673,-0.415 0.284,-0.2 0.616,-0.476 1.007,-0.801 0.358,-0.363 0.792,-0.764 1.185,-1.301 0.81,-1.043 1.611,-2.5 2.049,-4.343 0.41,-1.837 0.472,-4.061 -0.244,-6.35 C 83.398,13.171 81.826,10.964 79.674,9.179 77.516,7.393 74.808,6.019 71.819,5.091 68.825,4.155 65.541,3.714 62.151,3.584 58.756,3.45 55.246,3.619 51.666,3.817 44.519,4.317 37.695,4.031 31.513,3.511 25.33,2.984 19.781,2.263 15.12,1.681 10.458,1.091 6.683,0.624 4.068,0.355 2.761,0.209 1.744,0.125 1.054,0.063 0.734,0.038 0.476,0.019 0.269,0.003 0.092,-0.008 0.001,-0.009 0,0"
             style="fill:#ff9c6a;fill-opacity:1;fill-rule:nonzero;stroke:none"
             id="path528" />
        </g>
        <g
           id="g530"
           transform="translate(173.0085,46.8083)">
          <path
             d="M 0,0 -64.617,45.884 -47.694,69.716 16.923,23.832 Z"
             style="fill:#ececec;fill-opacity:1;fill-rule:nonzero;stroke:none"
             id="path532" />
        </g>
        <g
           id="g534"
           transform="translate(172.3088,34.7124)">
          <path
             d="M 0,0 -74.972,51.984 -58.868,75.776 15.785,22.765 Z"
             style="fill:#ff735d;fill-opacity:1;fill-rule:nonzero;stroke:none"
             id="path536" />
        </g>
      </g>
    </g>
  </g>
</svg>
